<?xml version="1.0" encoding="utf-8"?>
<!-- Generator: Adobe Illustrator 16.0.0, SVG Export Plug-In . SVG Version: 6.00 Build 0)  -->
<!DOCTYPE svg PUBLIC "-//W3C//DTD SVG 1.1//EN" "http://www.w3.org/Graphics/SVG/1.1/DTD/svg11.dtd">
<svg version="1.1" id="Layer_1" xmlns="http://www.w3.org/2000/svg" xmlns:xlink="http://www.w3.org/1999/xlink" x="0px" y="0px"
	 width="1600px" height="600px" viewBox="0 0 1600 600" enable-background="new 0 0 1600 600" xml:space="preserve">
<g>
	<rect x="1513.13" y="566.285" stroke="#000000" stroke-miterlimit="10" width="36" height="27"/>
	<rect x="1558.131" y="566.285" stroke="#000000" stroke-miterlimit="10" width="26.999" height="27"/>
	<rect x="1549.13" y="566.285" fill="none" stroke="#000000" stroke-miterlimit="10" width="9" height="27"/>
	<rect x="1504.13" y="566.285" fill="none" stroke="#000000" stroke-miterlimit="10" width="9" height="27"/>
	<rect x="1477.13" y="566.285" stroke="#000000" stroke-miterlimit="10" width="27" height="27"/>
</g>
<g>
	<rect x="1567.13" y="471.869" stroke="#000000" stroke-miterlimit="10" width="36" height="27"/>
	<rect x="1612.13" y="471.869" stroke="#000000" stroke-miterlimit="10" width="27" height="27"/>
	<rect x="1603.13" y="471.869" fill="none" stroke="#000000" stroke-miterlimit="10" width="9" height="27"/>
	<rect x="1558.131" y="471.869" fill="none" stroke="#000000" stroke-miterlimit="10" width="8.999" height="27"/>
	<rect x="1531.13" y="471.869" stroke="#000000" stroke-miterlimit="10" width="27" height="27"/>
</g>
<g>
	
		<rect x="1635.817" y="488.841" transform="matrix(0.3228 0.9465 -0.9465 0.3228 1596.6729 -1217.7932)" stroke="#000000" stroke-miterlimit="10" width="27" height="36"/>
	
		<rect x="1674.079" y="480.253" transform="matrix(0.3228 0.9465 -0.9465 0.3228 1610.218 -1262.8726)" stroke="#000000" stroke-miterlimit="10" width="27.001" height="26.999"/>
	
		<rect x="1657.125" y="495.077" transform="matrix(0.3228 0.9465 -0.9465 0.3228 1604.1912 -1242.8784)" fill="none" stroke="#000000" stroke-miterlimit="10" width="27.001" height="9.003"/>
	
		<rect x="1614.454" y="509.592" transform="matrix(0.3228 0.9465 -0.9465 0.3228 1589.0297 -1192.6632)" fill="none" stroke="#000000" stroke-miterlimit="10" width="27.001" height="8.999"/>
	
		<rect x="1597.43" y="506.405" transform="matrix(0.3228 0.9465 -0.9465 0.3228 1583.042 -1172.6132)" stroke="#000000" stroke-miterlimit="10" width="27" height="27.001"/>
</g>
<g>
	
		<rect x="1692.82" y="533.474" transform="matrix(-0.458 0.889 -0.889 -0.458 2978.0134 -712.8253)" stroke="#000000" stroke-miterlimit="10" width="27.002" height="36.002"/>
	
		<rect x="1728.768" y="556.526" transform="matrix(-0.4579 0.889 -0.889 -0.4579 3046.8096 -717.8394)" stroke="#000000" stroke-miterlimit="10" width="27" height="26.999"/>
	
		<rect x="1712.767" y="557.282" transform="matrix(-0.4579 0.889 -0.889 -0.4579 3016.1538 -715.6315)" fill="none" stroke="#000000" stroke-miterlimit="10" width="27" height="9.001"/>
	
		<rect x="1672.818" y="536.671" transform="matrix(-0.458 0.889 -0.889 -0.458 2939.6904 -710.067)" fill="none" stroke="#000000" stroke-miterlimit="10" width="27.002" height="9.001"/>
	
		<rect x="1656.807" y="519.414" transform="matrix(-0.458 0.889 -0.889 -0.458 2909.0254 -707.8522)" stroke="#000000" stroke-miterlimit="10" width="27.001" height="27"/>
</g>
<g>
	
		<rect x="1517.632" y="498.327" transform="matrix(-0.1445 0.9895 -0.9895 -0.1445 2263.2871 -924.1268)" stroke="#000000" stroke-miterlimit="10" width="26.999" height="36"/>
	
		<rect x="1557.681" y="508.657" transform="matrix(-0.1445 0.9895 -0.9895 -0.1445 2314.884 -957.0873)" stroke="#000000" stroke-miterlimit="10" width="27" height="26.999"/>
	
		<rect x="1539.895" y="515.078" transform="matrix(-0.1445 0.9895 -0.9895 -0.1445 2291.9768 -942.4395)" fill="none" stroke="#000000" stroke-miterlimit="10" width="27" height="8.999"/>
	
		<rect x="1495.368" y="508.575" transform="matrix(-0.1445 0.9895 -0.9895 -0.1445 2234.5818 -905.8219)" fill="none" stroke="#000000" stroke-miterlimit="10" width="27" height="9"/>
	
		<rect x="1477.557" y="496.974" transform="matrix(-0.1445 0.9895 -0.9895 -0.1445 2211.6235 -891.1747)" stroke="#000000" stroke-miterlimit="10" width="27" height="27"/>
</g>
<g>
	
		<rect x="1442.649" y="542.332" transform="matrix(0.3923 0.9198 -0.9198 0.3923 1400.2939 -998.9053)" stroke="#000000" stroke-miterlimit="10" width="26.998" height="35.998"/>
	
		<rect x="1479.889" y="530.943" transform="matrix(0.3923 0.9198 -0.9198 0.3923 1408.3318 -1042.8174)" stroke="#000000" stroke-miterlimit="10" width="26.999" height="26.998"/>
	
		<rect x="1463.333" y="547.001" transform="matrix(0.3923 0.9198 -0.9198 0.3923 1404.7415 -1023.2976)" fill="none" stroke="#000000" stroke-miterlimit="10" width="26.998" height="9"/>
	
		<rect x="1421.951" y="564.656" transform="matrix(0.3923 0.9198 -0.9198 0.3923 1395.8337 -974.5039)" fill="none" stroke="#000000" stroke-miterlimit="10" width="26.998" height="9.001"/>
	
		<rect x="1405.382" y="562.714" transform="matrix(0.3923 0.9198 -0.9198 0.3923 1392.2783 -954.9752)" stroke="#000000" stroke-miterlimit="10" width="26.999" height="26.999"/>
</g>
<g>
	<rect x="1567.13" y="534.993" stroke="#000000" stroke-miterlimit="10" width="36" height="27"/>
	<rect x="1612.13" y="534.993" stroke="#000000" stroke-miterlimit="10" width="27" height="27"/>
	<rect x="1603.13" y="534.993" fill="none" stroke="#000000" stroke-miterlimit="10" width="9" height="27"/>
	<rect x="1558.131" y="534.993" fill="none" stroke="#000000" stroke-miterlimit="10" width="8.999" height="27"/>
	<rect x="1531.13" y="534.993" stroke="#000000" stroke-miterlimit="10" width="27" height="27"/>
</g>
<g>
	<rect x="1629.61" y="566.285" stroke="#000000" stroke-miterlimit="10" width="36" height="27"/>
	<rect x="1674.61" y="566.285" stroke="#000000" stroke-miterlimit="10" width="27" height="27"/>
	<rect x="1665.61" y="566.285" fill="none" stroke="#000000" stroke-miterlimit="10" width="9" height="27"/>
	<rect x="1620.61" y="566.285" fill="none" stroke="#000000" stroke-miterlimit="10" width="9" height="27"/>
	<rect x="1593.61" y="566.285" stroke="#000000" stroke-miterlimit="10" width="27" height="27"/>
</g>
<g>
	<rect x="1544.63" y="411.369" stroke="#000000" stroke-miterlimit="10" width="36" height="27"/>
	<rect x="1589.63" y="411.369" stroke="#000000" stroke-miterlimit="10" width="27" height="27"/>
	<rect x="1580.63" y="411.369" fill="none" stroke="#000000" stroke-miterlimit="10" width="9" height="27"/>
	<rect x="1535.63" y="411.369" fill="none" stroke="#000000" stroke-miterlimit="10" width="9" height="27"/>
	<rect x="1508.63" y="411.369" stroke="#000000" stroke-miterlimit="10" width="27" height="27"/>
</g>
<g>
	<rect x="1557.609" y="441.192" stroke="#000000" stroke-miterlimit="10" width="36.001" height="27"/>
	<rect x="1602.61" y="441.192" stroke="#000000" stroke-miterlimit="10" width="27" height="27"/>
	<rect x="1593.61" y="441.192" fill="none" stroke="#000000" stroke-miterlimit="10" width="9" height="27"/>
	<rect x="1548.61" y="441.192" fill="none" stroke="#000000" stroke-miterlimit="10" width="9" height="27"/>
	<rect x="1521.61" y="441.192" stroke="#000000" stroke-miterlimit="10" width="27" height="27"/>
</g>
<g>
	<rect x="-16.219" y="95.166" fill="none" stroke="#000000" stroke-miterlimit="10" width="212.219" height="282.961"/>
	<rect x="-18.84" y="95.166" fill="none" stroke="#000000" stroke-miterlimit="10" width="214.84" height="285.58"/>
	<rect x="196" y="95.166" fill="none" stroke="#000000" stroke-miterlimit="10" width="212.221" height="282.961"/>
	<rect x="196" y="95.166" fill="none" stroke="#000000" stroke-miterlimit="10" width="217.5" height="285.58"/>
	<line fill="none" stroke="#000000" stroke-miterlimit="10" x1="4.74" y1="95.166" x2="4.74" y2="378.127"/>
	<line fill="none" stroke="#000000" stroke-miterlimit="10" x1="-10.98" y1="95.166" x2="-10.98" y2="378.127"/>
	<line fill="none" stroke="#000000" stroke-miterlimit="10" x1="-5.74" y1="95.166" x2="-5.74" y2="378.127"/>
	<line fill="none" stroke="#000000" stroke-miterlimit="10" x1="-0.5" y1="95.166" x2="-0.5" y2="378.127"/>
	<line fill="none" stroke="#000000" stroke-miterlimit="10" x1="402.98" y1="95.166" x2="402.98" y2="378.127"/>
	<line fill="none" stroke="#000000" stroke-miterlimit="10" x1="387.26" y1="95.166" x2="387.26" y2="378.127"/>
	<line fill="none" stroke="#000000" stroke-miterlimit="10" x1="392.5" y1="95.166" x2="392.5" y2="378.127"/>
	<line fill="none" stroke="#000000" stroke-miterlimit="10" x1="397.74" y1="95.166" x2="397.74" y2="378.127"/>
	<g>
		<path d="M40.535,138.467c-0.568-0.146-1.066-0.377-1.496-0.693c-0.43-0.318-0.766-0.721-1.006-1.213s-0.361-1.07-0.361-1.736
			c0-0.797,0.158-1.455,0.477-1.973c0.316-0.516,0.736-0.92,1.258-1.213c0.52-0.291,1.104-0.49,1.742-0.604
			c0.639-0.115,1.295-0.168,1.973-0.168c0.666,0,1.365,0.045,2.096,0.139c0.732,0.092,1.344,0.219,1.836,0.383v-1.182
			c0-0.533-0.037-1.029-0.102-1.49c-0.066-0.457-0.209-0.855-0.43-1.189c-0.219-0.332-0.545-0.598-0.975-0.797
			c-0.43-0.201-1.008-0.301-1.734-0.301c-2.293,0-3.436,0.953-3.436,2.859h-2.381c0-0.982,0.18-1.797,0.545-2.438
			c0.363-0.639,0.832-1.143,1.414-1.512c0.578-0.365,1.223-0.621,1.932-0.768c0.711-0.143,1.414-0.215,2.113-0.215
			c1.818,0,3.197,0.441,4.129,1.324c0.93,0.879,1.395,2.221,1.395,4.02v6.217c0,0.275,0.057,0.469,0.164,0.57
			c0.107,0.1,0.305,0.154,0.59,0.154c0.236,0,0.492-0.021,0.762-0.062c0.27-0.039,0.533-0.092,0.789-0.152v1.764
			c-0.256,0.104-0.598,0.211-1.027,0.322c-0.43,0.113-0.887,0.17-1.367,0.17c-0.816,0-1.363-0.191-1.633-0.578
			c-0.27-0.385-0.406-0.807-0.406-1.264v-0.264c-0.184,0.234-0.42,0.48-0.709,0.729c-0.287,0.248-0.635,0.48-1.041,0.691
			c-0.41,0.209-0.881,0.379-1.412,0.498c-0.533,0.121-1.148,0.186-1.842,0.186C41.719,138.682,41.1,138.609,40.535,138.467z
			 M45.23,136.201c0.701-0.25,1.307-0.555,1.818-0.916v-2.131c-0.381-0.102-0.877-0.184-1.496-0.246s-1.277-0.092-1.973-0.092
			c-1.064,0-1.904,0.137-2.51,0.406c-0.609,0.27-0.914,0.781-0.914,1.527c0,1.219,0.881,1.824,2.641,1.824
			C43.719,136.578,44.531,136.453,45.23,136.201z"/>
		<path d="M62.592,138.496c-0.475-0.123-0.895-0.283-1.256-0.486c-0.363-0.199-0.686-0.422-0.959-0.674
			c-0.275-0.252-0.506-0.492-0.693-0.727v1.764h-2.072v-20.064h2.486v7.738c0.145-0.164,0.336-0.346,0.576-0.545
			c0.242-0.199,0.535-0.385,0.883-0.553c0.35-0.172,0.736-0.311,1.166-0.422c0.43-0.113,0.906-0.17,1.428-0.17
			c0.738,0,1.449,0.133,2.129,0.393c0.682,0.258,1.287,0.672,1.816,1.234c0.533,0.564,0.963,1.303,1.291,2.221
			c0.326,0.916,0.492,2.021,0.492,3.324c0,1.248-0.16,2.326-0.479,3.232c-0.316,0.902-0.734,1.645-1.256,2.217
			c-0.521,0.574-1.131,1.002-1.818,1.283c-0.689,0.279-1.416,0.422-2.172,0.422C63.588,138.682,63.068,138.619,62.592,138.496z
			 M66.445,135.195c0.609-0.941,0.916-2.164,0.916-3.668c0-1.516-0.305-2.742-0.916-3.686c-0.607-0.938-1.59-1.412-2.955-1.412
			c-0.756,0-1.416,0.139-1.98,0.408c-0.562,0.27-1.033,0.598-1.412,0.975v7.414c0.381,0.379,0.85,0.703,1.412,0.975
			c0.564,0.27,1.225,0.408,1.98,0.408C64.855,136.609,65.84,136.137,66.445,135.195z"/>
		<path d="M79.828,138.352c-0.812-0.221-1.543-0.602-2.203-1.146s-1.195-1.275-1.605-2.195c-0.408-0.924-0.613-2.084-0.613-3.484
			c0-1.434,0.215-2.611,0.645-3.531c0.43-0.924,0.975-1.654,1.635-2.195c0.66-0.543,1.395-0.922,2.205-1.131
			c0.809-0.211,1.6-0.314,2.377-0.314c0.645,0,1.318,0.076,2.021,0.23c0.701,0.154,1.346,0.424,1.932,0.814
			c0.59,0.391,1.082,0.914,1.482,1.574c0.398,0.66,0.629,1.502,0.691,2.525H85.91c-0.123-1.146-0.51-1.926-1.16-2.346
			s-1.455-0.631-2.418-0.631c-1.402,0-2.482,0.4-3.238,1.199c-0.758,0.801-1.137,2.066-1.137,3.807c0,1.76,0.379,3.031,1.137,3.814
			c0.756,0.783,1.836,1.174,3.238,1.174c0.963,0,1.768-0.209,2.418-0.629s1.037-1.203,1.16-2.346h2.484
			c-0.061,1.002-0.295,1.836-0.707,2.508s-0.908,1.201-1.496,1.588c-0.586,0.389-1.234,0.66-1.936,0.816
			c-0.697,0.154-1.363,0.23-1.988,0.23C81.449,138.682,80.633,138.57,79.828,138.352z"/>
	</g>
</g>
<g>
	<g>
		<rect x="430.157" y="277.938" fill="none" stroke="#000000" stroke-miterlimit="10" width="106.109" height="141.48"/>
		<rect x="428.847" y="277.938" fill="none" stroke="#000000" stroke-miterlimit="10" width="107.42" height="142.791"/>
		<rect x="536.267" y="277.938" fill="none" stroke="#000000" stroke-miterlimit="10" width="106.11" height="141.48"/>
		<rect x="536.267" y="277.938" fill="none" stroke="#000000" stroke-miterlimit="10" width="108.75" height="142.791"/>
		<line fill="none" stroke="#000000" stroke-miterlimit="10" x1="440.637" y1="277.938" x2="440.637" y2="419.418"/>
		<line fill="none" stroke="#000000" stroke-miterlimit="10" x1="432.776" y1="277.938" x2="432.776" y2="419.418"/>
		<line fill="none" stroke="#000000" stroke-miterlimit="10" x1="435.396" y1="277.938" x2="435.396" y2="419.418"/>
		<line fill="none" stroke="#000000" stroke-miterlimit="10" x1="438.017" y1="277.938" x2="438.017" y2="419.418"/>
		<line fill="none" stroke="#000000" stroke-miterlimit="10" x1="639.757" y1="277.938" x2="639.757" y2="419.418"/>
		<line fill="none" stroke="#000000" stroke-miterlimit="10" x1="631.896" y1="277.938" x2="631.896" y2="419.418"/>
		<line fill="none" stroke="#000000" stroke-miterlimit="10" x1="634.517" y1="277.938" x2="634.517" y2="419.418"/>
		<line fill="none" stroke="#000000" stroke-miterlimit="10" x1="637.137" y1="277.938" x2="637.137" y2="419.418"/>
		<g>
			<path d="M458.534,299.588c-0.284-0.073-0.533-0.188-0.748-0.347c-0.215-0.159-0.383-0.36-0.503-0.606s-0.181-0.535-0.181-0.868
				c0-0.398,0.079-0.728,0.238-0.986c0.158-0.258,0.368-0.46,0.629-0.606c0.26-0.146,0.552-0.245,0.871-0.302
				c0.319-0.058,0.647-0.084,0.986-0.084c0.333,0,0.683,0.022,1.048,0.069c0.366,0.046,0.672,0.109,0.918,0.191v-0.591
				c0-0.267-0.019-0.515-0.051-0.745c-0.033-0.229-0.104-0.428-0.215-0.595c-0.109-0.166-0.272-0.299-0.487-0.398
				c-0.215-0.101-0.504-0.15-0.867-0.15c-1.146,0-1.718,0.477-1.718,1.43h-1.19c0-0.491,0.09-0.898,0.272-1.219
				c0.182-0.319,0.416-0.571,0.707-0.756c0.289-0.183,0.611-0.311,0.966-0.384c0.355-0.071,0.707-0.107,1.057-0.107
				c0.909,0,1.599,0.221,2.064,0.662c0.465,0.439,0.697,1.11,0.697,2.01v3.108c0,0.138,0.028,0.234,0.082,0.285
				c0.054,0.05,0.152,0.077,0.295,0.077c0.118,0,0.246-0.011,0.381-0.031c0.135-0.02,0.267-0.046,0.395-0.076v0.882
				c-0.128,0.052-0.299,0.105-0.514,0.161c-0.215,0.057-0.443,0.085-0.684,0.085c-0.408,0-0.682-0.096-0.816-0.289
				c-0.135-0.192-0.203-0.403-0.203-0.632v-0.132c-0.092,0.117-0.21,0.24-0.354,0.364c-0.144,0.124-0.317,0.24-0.521,0.346
				c-0.205,0.104-0.44,0.189-0.706,0.249c-0.267,0.061-0.574,0.093-0.921,0.093C459.126,299.695,458.816,299.659,458.534,299.588z
				 M460.882,298.455c0.351-0.125,0.653-0.277,0.909-0.458v-1.065c-0.19-0.051-0.438-0.092-0.748-0.123s-0.639-0.046-0.986-0.046
				c-0.532,0-0.952,0.068-1.255,0.203c-0.305,0.135-0.457,0.391-0.457,0.764c0,0.609,0.44,0.912,1.32,0.912
				C460.126,298.644,460.532,298.581,460.882,298.455z"/>
			<path d="M469.562,299.603c-0.237-0.062-0.447-0.142-0.628-0.243c-0.182-0.1-0.343-0.211-0.479-0.337
				c-0.138-0.126-0.253-0.246-0.347-0.363v0.882h-1.036v-10.032h1.243v3.869c0.072-0.082,0.168-0.173,0.288-0.272
				c0.121-0.1,0.268-0.192,0.441-0.276c0.175-0.086,0.368-0.155,0.583-0.211c0.215-0.057,0.453-0.085,0.714-0.085
				c0.369,0,0.725,0.066,1.064,0.196c0.341,0.129,0.644,0.336,0.908,0.617c0.267,0.282,0.481,0.651,0.646,1.11
				c0.163,0.458,0.246,1.011,0.246,1.662c0,0.624-0.08,1.163-0.239,1.616c-0.158,0.451-0.367,0.822-0.628,1.108
				c-0.261,0.287-0.565,0.501-0.909,0.642c-0.345,0.14-0.708,0.211-1.086,0.211C470.061,299.695,469.801,299.664,469.562,299.603z
				 M471.489,297.952c0.305-0.471,0.458-1.082,0.458-1.834c0-0.758-0.152-1.371-0.458-1.843c-0.304-0.469-0.795-0.706-1.478-0.706
				c-0.378,0-0.708,0.069-0.99,0.204c-0.281,0.135-0.517,0.299-0.706,0.487v3.707c0.19,0.189,0.425,0.352,0.706,0.487
				c0.282,0.135,0.612,0.204,0.99,0.204C470.694,298.659,471.187,298.423,471.489,297.952z"/>
			<path d="M478.181,299.53c-0.406-0.11-0.771-0.301-1.102-0.573s-0.598-0.638-0.803-1.098c-0.204-0.462-0.307-1.042-0.307-1.742
				c0-0.717,0.107-1.306,0.322-1.766c0.215-0.462,0.487-0.827,0.817-1.098c0.33-0.271,0.697-0.461,1.103-0.565
				c0.404-0.105,0.8-0.157,1.188-0.157c0.322,0,0.659,0.038,1.011,0.115c0.351,0.077,0.673,0.212,0.966,0.407
				c0.295,0.195,0.541,0.457,0.741,0.787c0.199,0.33,0.314,0.751,0.346,1.263h-1.242c-0.062-0.573-0.255-0.963-0.58-1.173
				s-0.728-0.315-1.209-0.315c-0.701,0-1.241,0.2-1.619,0.6c-0.379,0.4-0.568,1.033-0.568,1.903c0,0.88,0.189,1.516,0.568,1.907
				c0.378,0.392,0.918,0.587,1.619,0.587c0.481,0,0.884-0.104,1.209-0.314s0.519-0.602,0.58-1.173h1.242
				c-0.03,0.501-0.147,0.918-0.354,1.254s-0.454,0.601-0.748,0.794c-0.293,0.194-0.617,0.33-0.968,0.408
				c-0.349,0.077-0.682,0.115-0.994,0.115C478.991,299.695,478.583,299.64,478.181,299.53z"/>
		</g>
	</g>
</g>
<g>
	<rect x="1468.268" y="348.214" stroke="#000000" stroke-miterlimit="10" width="36" height="27"/>
	<rect x="1513.268" y="348.214" stroke="#000000" stroke-miterlimit="10" width="27" height="27"/>
	<rect x="1504.268" y="348.214" fill="none" stroke="#000000" stroke-miterlimit="10" width="9" height="27"/>
	<rect x="1459.268" y="348.214" fill="none" stroke="#000000" stroke-miterlimit="10" width="9" height="27"/>
	<rect x="1432.268" y="348.214" stroke="#000000" stroke-miterlimit="10" width="27" height="27"/>
</g>
<g>
	
		<rect x="1354.887" y="463.393" transform="matrix(-0.7071 0.7071 -0.7071 -0.7071 2680.8779 -156.6689)" stroke="#000000" stroke-miterlimit="10" width="35.999" height="27.001"/>
	
		<rect x="1388.023" y="434.756" transform="matrix(-0.7071 0.7071 -0.7071 -0.7071 2709.5149 -225.8062)" stroke="#000000" stroke-miterlimit="10" width="27" height="27"/>
	
		<rect x="1384.295" y="447.484" transform="matrix(-0.7071 0.7071 -0.7071 -0.7071 2696.7869 -195.0779)" fill="none" stroke="#000000" stroke-miterlimit="10" width="9" height="27"/>
	
		<rect x="1352.476" y="479.303" transform="matrix(-0.7071 0.7071 -0.7071 -0.7071 2664.9675 -118.2593)" fill="none" stroke="#000000" stroke-miterlimit="10" width="9" height="27"/>
	
		<rect x="1330.748" y="492.031" transform="matrix(-0.7071 0.7071 -0.7071 -0.7071 2652.2395 -87.5311)" stroke="#000000" stroke-miterlimit="10" width="27" height="27"/>
</g>
<g>
	<rect x="1472.768" y="415.765" stroke="#000000" stroke-miterlimit="10" width="27" height="36"/>
	<rect x="1472.768" y="460.765" stroke="#000000" stroke-miterlimit="10" width="27" height="27"/>
	<rect x="1472.768" y="451.765" fill="none" stroke="#000000" stroke-miterlimit="10" width="27" height="9"/>
	<rect x="1472.768" y="406.765" fill="none" stroke="#000000" stroke-miterlimit="10" width="27" height="9"/>
	<rect x="1472.768" y="379.765" stroke="#000000" stroke-miterlimit="10" width="27" height="27"/>
</g>
<g>
	<rect x="1431.386" y="467.348" stroke="#000000" stroke-miterlimit="10" width="27" height="36"/>
	<rect x="1431.386" y="431.348" stroke="#000000" stroke-miterlimit="10" width="27" height="27"/>
	<rect x="1431.386" y="458.348" fill="none" stroke="#000000" stroke-miterlimit="10" width="27" height="9"/>
	<rect x="1431.386" y="503.348" fill="none" stroke="#000000" stroke-miterlimit="10" width="27" height="9"/>
	<rect x="1431.386" y="512.348" stroke="#000000" stroke-miterlimit="10" width="27" height="27"/>
</g>
<g>
	<rect x="1354.886" y="527.353" stroke="#000000" stroke-miterlimit="10" width="36" height="27"/>
	<rect x="1399.886" y="527.353" stroke="#000000" stroke-miterlimit="10" width="27" height="27"/>
	<rect x="1390.886" y="527.353" fill="none" stroke="#000000" stroke-miterlimit="10" width="9" height="27"/>
	<rect x="1345.886" y="527.353" fill="none" stroke="#000000" stroke-miterlimit="10" width="9" height="27"/>
	<rect x="1318.886" y="527.353" stroke="#000000" stroke-miterlimit="10" width="27" height="27"/>
</g>
<g>
	<rect x="1308.616" y="559.369" stroke="#000000" stroke-miterlimit="10" width="36" height="27"/>
	<rect x="1353.616" y="559.369" stroke="#000000" stroke-miterlimit="10" width="27" height="27"/>
	<rect x="1344.616" y="559.369" fill="none" stroke="#000000" stroke-miterlimit="10" width="9" height="27"/>
	<rect x="1299.616" y="559.369" fill="none" stroke="#000000" stroke-miterlimit="10" width="9" height="27"/>
	<rect x="1272.616" y="559.369" stroke="#000000" stroke-miterlimit="10" width="27" height="27"/>
</g>
<g>
	
		<rect x="93.476" y="530.941" transform="matrix(-0.7071 0.7071 -0.7071 -0.7071 575.2781 850.5948)" stroke="#000000" stroke-miterlimit="10" width="35.999" height="27.001"/>
	
		<rect x="126.612" y="502.304" transform="matrix(-0.7071 0.7071 -0.7071 -0.7071 603.915 781.4576)" stroke="#000000" stroke-miterlimit="10" width="27" height="27"/>
	
		<rect x="122.884" y="515.032" transform="matrix(-0.7071 0.7071 -0.7071 -0.7071 591.1869 812.1858)" fill="none" stroke="#000000" stroke-miterlimit="10" width="9" height="27"/>
	
		<rect x="91.065" y="546.851" transform="matrix(-0.7071 0.7071 -0.7071 -0.7071 559.3676 889.0045)" fill="none" stroke="#000000" stroke-miterlimit="10" width="9" height="27"/>
	
		<rect x="69.337" y="559.579" transform="matrix(-0.7071 0.7071 -0.7071 -0.7071 546.6396 919.7327)" stroke="#000000" stroke-miterlimit="10" width="27" height="27"/>
</g>
<g>
	<rect x="206.416" y="519.465" stroke="#000000" stroke-miterlimit="10" width="27" height="36"/>
	<rect x="206.416" y="483.465" stroke="#000000" stroke-miterlimit="10" width="27" height="27"/>
	<rect x="206.416" y="510.465" fill="none" stroke="#000000" stroke-miterlimit="10" width="27" height="9"/>
	<rect x="206.416" y="555.465" fill="none" stroke="#000000" stroke-miterlimit="10" width="27" height="9"/>
	<rect x="206.416" y="564.465" stroke="#000000" stroke-miterlimit="10" width="27" height="27"/>
</g>
<g>
	<rect x="169" y="519.465" stroke="#000000" stroke-miterlimit="10" width="27" height="36"/>
	<rect x="169" y="483.465" stroke="#000000" stroke-miterlimit="10" width="27" height="27"/>
	<rect x="169" y="510.465" fill="none" stroke="#000000" stroke-miterlimit="10" width="27" height="9"/>
	<rect x="169" y="555.465" fill="none" stroke="#000000" stroke-miterlimit="10" width="27" height="9"/>
	<rect x="169" y="564.465" stroke="#000000" stroke-miterlimit="10" width="27" height="27"/>
</g>
</svg>
