<?xml version="1.0" encoding="utf-8"?>
<!-- Generator: Adobe Illustrator 16.0.0, SVG Export Plug-In . SVG Version: 6.00 Build 0)  -->
<!DOCTYPE svg PUBLIC "-//W3C//DTD SVG 1.1//EN" "http://www.w3.org/Graphics/SVG/1.1/DTD/svg11.dtd">
<svg version="1.1" id="Layer_1" xmlns="http://www.w3.org/2000/svg" xmlns:xlink="http://www.w3.org/1999/xlink" x="0px" y="0px"
	 width="1600px" height="600px" viewBox="0 0 1600 600" enable-background="new 0 0 1600 600" xml:space="preserve">
<path d="M1492.655,184.287c-3.049-11.494-3.009-11.422,6.402-16.906c1.271-0.739,2.613-2.617,2.639-3.988
	c0.064-4.084-0.223-8.232-0.975-12.242c-0.299-1.594-1.898-3.652-3.387-4.199c-10.25-3.777-10.291-3.667-9.129-15.21
	c0.096-0.132,0.199-0.384,0.285-0.378c12.021,0.761,15.605-6.413,16.621-16.823c0.25-2.557,0.143-3.962-1.748-5.336
	c-9.234-6.709-9.236-6.709-4.089-16.915c1.88,0,3.923-0.326,5.823,0.057c7.502,1.508,7.57,1.514,11.17-5.053
	c1.721-3.141,3.619-6.182,5.562-9.475c-2.156-2.896-4.562-5.797-6.539-8.967c-0.654-1.051-0.787-3.176-0.147-4.141
	c1.802-2.713,4.125-5.078,6.323-7.677c3.945,1.951,7.75,3.831,11.699,5.783c4.008-3.515,8.201-6.935,12.022-10.729
	c0.903-0.896,0.761-3.052,0.722-4.62c-0.025-1.084-0.779-2.131-1.064-3.231c-0.594-2.3-2.299-5.528-1.381-6.752
	c1.972-2.629,5.254-4.321,8.15-6.163c0.5-0.319,1.862,0.326,2.594,0.852c1.068,0.768,1.959,1.8,2.867,2.773
	c3.326,3.566,6.934,5.329,11.422,1.92c0.133-0.1,0.268-0.227,0.42-0.268c7.873-2.082,11.56-6.57,10.094-15.217
	c-0.926-5.467,4.74-4.239,7.637-5.405c1.318-0.532,4.529,0.384,4.977,1.442c3.537,8.428,9.232,10.243,17.396,6.893
	c1.707-0.701,3.947-0.102,6.275-0.102c0.859-3.539,2.084-6.93,2.412-10.406c0.308-3.259,1.897-3.66,4.58-3.701
	c8.524-0.135,8.521-0.209,10.522,7.967c0.459,1.879,0.937,3.755,1.36,5.465c5.06,0.868,10.019,2.008,15.035,2.414
	c1.59,0.128,3.381-1.633,4.982-2.678c0.471-0.307,0.6-1.132,0.896-1.713c3.619-7.092,7.758-8.188,14.25-3.436
	c0.971,0.711,1.496,2.836,1.312,4.18c-0.934,6.806,0.99,10.969,8.107,13.613c8.754,3.254,8.539,4.027,15.438-2.705
	c1.938-1.895,3.457-2.932,5.773-0.539c1.098,1.129,2.768,1.689,4.145,2.56c2.666,1.685,3.459,3.792,1.698,6.697
	c-0.745,1.232-0.899,2.812-1.587,4.095c-2.021,3.791-0.82,6.008,2.712,8.313c3.421,2.231,6.118,5.569,9.259,8.537
	c1.873-0.907,3.76-1.806,5.635-2.731c1.906-0.941,3.799-1.91,6.354-3.197c2.149,2.775,4.524,5.605,6.569,8.656
	c0.474,0.705,0.166,2.389-0.379,3.236c-1.947,3.025-4.15,5.886-6.387,8.988c2.536,4.357,4.754,9.197,7.993,13.21
	c1.271,1.575,4.813,1.532,7.366,1.792c2.361,0.238,6.035-1.107,6.929,0.009c2.157,2.696,3.147,6.381,4.302,9.771
	c0.182,0.534-1.115,1.778-1.943,2.41c-2.854,2.172-5.803,4.217-8.627,6.247c0.965,4.809,1.855,9.416,2.826,14.006
	c0.644,3.039,2.604,4.584,5.699,4.878c2.92,0.276,5.823,0.724,8.836,1.108c0.141,0.838,0.326,1.473,0.344,2.111
	c0.285,10.658,0.252,10.568-10.104,13.783c-1.22,0.379-2.541,2.313-2.75,3.689c-0.646,4.209-0.973,8.496-0.97,12.753
	c0.002,1.243,1.263,2.846,2.396,3.655c3,2.146,7.65,3.283,8.979,6.084c1.22,2.568-1.041,6.787-1.854,10.689
	c-1.846,0-3.703,0.277-5.445-0.051c-6.071-1.146-8.811,1.455-11.051,7.151c-2.744,6.976-4.758,12.794,3.461,17.186
	c0.959,0.513,1.593,1.641,2.504,2.622c-1.068,1.925-2.073,3.779-3.127,5.605c-0.969,1.68-1.989,3.33-3.071,5.133
	c-4.295-1.229-8.476-2.426-12.942-3.705c-3.269,4.132-6.715,8.237-9.808,12.594c-0.704,0.995-0.677,3.074-0.142,4.28
	c1.386,3.116,3.24,6.022,5.172,9.481c-2.784,2.434-5.448,5.093-8.502,7.187c-0.734,0.505-2.911-0.616-4.161-1.407
	c-8.212-5.188-8.147-5.176-15.981,0.818c-2.185,1.67-4.666,2.949-7.287,4.578c0.875,3.459,1.979,6.86,2.488,10.348
	c0.188,1.276-0.65,3.351-1.693,4.03c-2.705,1.765-5.782,2.956-8.914,4.474c-2.389-2.988-4.418-5.965-6.93-8.455
	c-0.963-0.954-3.103-1.278-4.572-1.049c-3.041,0.475-5.953,1.808-8.996,2.256c-5.373,0.791-6.895,4.103-6.686,8.934
	c0.094,2.135,0.016,4.277,0.016,6.4c-3.065,0.566-5.754,1.188-8.475,1.531c-2.755,0.35-5.339,0.357-5.775-3.539
	c-0.192-1.719-0.883-3.668-2.006-4.922c-1.338-1.49-3.297-2.537-5.16-3.402c-0.959-0.444-2.317,0.07-3.459-0.103
	c-7.93-1.197-13.766,0.603-15.338,9.708c-0.174,1.002-2.988,2.174-4.574,2.17c-2.881-0.01-5.758-0.848-8.655-1.342
	c-1.935-4.719,2.479-11.645-4.722-14.458c-4.23-1.654-9.1-4.414-12.95-3.524c-3.716,0.858-6.494,5.769-9.875,9.085
	c-10.951-3.131-10.951-3.131-8.435-18.252c-4.131-2.764-8.396-5.468-12.485-8.416c-1.959-1.411-3.362-1.558-5.487-0.115
	c-9.371,6.362-9.427,6.281-17.484-2.566c0.793-1.631,1.49-3.454,2.502-5.082c4.338-6.976,3.459-6.404-0.557-13.057
	c-5.434-8.999-11.939-8.201-19.732-4.128c-2.25-3.879-4.276-7.372-6.858-11.821c2.123-1.767,4.06-4.012,6.504-5.262
	c3.563-1.824,4.289-3.924,2.187-7.208c-0.25-0.39-0.194-0.963-0.383-1.408c-1.688-4.018-2.365-9.55-5.396-11.602
	C1502.173,182.722,1496.808,184.287,1492.655,184.287z M1616.913,41.379c-36.902,0.369-78.107,29.48-90.433,65.764
	c19.877,0,39.688,0.004,59.505-0.002c6.123-0.002,10.193-2.828,12.145-8.71C1604.384,79.581,1610.558,60.706,1616.913,41.379z
	 M1632.751,41.291c6.414,19.704,12.662,39.062,19.043,58.374c1.441,4.363,6.35,7.465,11.139,7.473
	c11.324,0.02,22.648,0.006,33.975,0.006c8.76,0,17.518,0,26.434,0C1709.048,68.547,1668.423,42.106,1632.751,41.291z
	 M1728.536,122.828c-1.015,0.463-1.488,0.592-1.863,0.862c-15.629,11.273-31.291,22.504-46.842,33.888
	c-3.265,2.39-6.017,5.545-5.029,10.062c1.07,4.904,2.416,9.766,3.926,14.556c4.785,15.183,9.703,30.323,15.105,47.149
	c15.385-14.209,26.529-29.777,32.564-48.535C1732.48,161.908,1734.229,142.588,1728.536,122.828z M1521.802,122.893
	c-14.524,23.958,6.627,88.991,33.806,104.821c0.248-0.223,0.636-0.399,0.726-0.674c6.18-18.715,12.453-37.4,18.41-56.186
	c1.463-4.608,0.229-9.049-3.824-12.215c-2.317-1.811-4.771-3.447-7.146-5.18C1549.786,143.28,1535.806,133.093,1521.802,122.893z
	 M1680.073,237.976c-14.857-10.858-29.434-21.375-43.854-32.098c-8.438-6.277-14.279-6.419-22.637-0.162
	c-6.936,5.19-13.982,10.225-20.969,15.344c-7.701,5.642-15.391,11.301-23.24,17.068
	C1602.331,260.45,1651.194,258.74,1680.073,237.976z M1624.808,162.144c8.908,0,15.084-6.209,15.061-15.143
	c-0.021-7.637-7.701-15.154-15.304-14.977c-7.504,0.176-14.795,7.538-14.817,14.964
	C1609.716,155.849,1615.974,162.144,1624.808,162.144z"/>
<path d="M1531.829,540.47c-3.855-1.939-7.349-3.698-11.047-5.56c0.864-4.471,1.718-8.885,2.524-13.069
	c-4.316-3.054-8.345-6.127-12.632-8.781c-1.192-0.738-3.448-0.815-4.713-0.187c-3.037,1.515-5.877,5.225-8.606,5.052
	c-2.746-0.175-5.257-3.979-7.893-6.167c-0.48-0.399-1.071-0.671-1.874-1.161c1.426-2.458,2.664-4.938,4.221-7.198
	c2.449-3.557,1.614-6.143-0.937-9.57c-4.98-6.693-9.797-11.918-18.82-6.557c-0.663,0.396-2.813-0.587-3.46-1.503
	c-1.858-2.646-3.303-5.583-5.067-8.688c3.33-3.109,6.569-6.135,9.959-9.298c-1.855-4.876-3.662-10.076-5.884-15.094
	c-0.482-1.095-2.398-2.059-3.734-2.176c-3.457-0.305-6.959-0.103-10.58-0.103c-0.843-3.34-2.044-6.425-2.211-9.564
	c-0.07-1.326,1.764-3.443,3.209-4.036c5.661-2.317,9.311-4.444,7.812-12.339c-1.911-10.078-0.854-10.28-10.695-13.742
	c-0.759-0.267-1.543-0.455-2.291-0.675c-0.107-0.369-0.273-0.684-0.285-1.001c-0.328-10.297-0.351-10.396,9.714-12.845
	c3.438-0.836,5.757-2.135,5.23-6.135c-0.062-0.488-0.021-1.006,0.061-1.495c0.645-3.854,2.856-8.379,1.551-11.368
	c-1.421-3.246-6.111-5.06-9.783-7.801c1.378-3.396,2.835-6.986,4.359-10.74c2.379,0,4.993-0.707,6.934,0.137
	c5.08,2.209,7.705-0.117,9.834-4.188c0.151-0.291,0.252-0.605,0.393-0.902c1.646-3.518,4.878-7.215,4.505-10.502
	c-0.382-3.364-4.296-6.327-7.01-9.928c2.385-3.143,4.921-6.482,7.337-9.666c0.73,0.082,1.072,0.053,1.361,0.166
	c3.911,1.52,8.576,5.172,11.546,4.104c4.606-1.656,8.33-6.285,11.819-10.195c0.974-1.092,0.267-4.271-0.466-6.188
	c-2.91-7.625-1.812-10.943,5.888-13.428c1.612-0.521,4.857,1.198,6.088,2.834c4.232,5.625,8.232,3.428,13.498,1.467
	c6.951-2.592,9.655-6.405,8.076-13.477c-0.922-4.133,1.674-5.521,4.982-6.298c3.636-0.853,7.379-2.458,9.375,2.786
	c2.019,5.302,5.102,8.664,11.672,6.245c3.156-1.162,6.771-1.074,10.526-1.601c0.746-2.777,1.962-5.839,2.315-8.998
	c0.4-3.565,1.923-5.133,5.39-4.477c3.324,0.63,7.805-2.409,9.035,4.38c1.739,9.603,2.45,8.911,13.021,10.812
	c6.017,1.08,8.73-0.389,11.077-5.77c2.266-5.195,9.252-5.949,13.389-1.736c1.104,1.125,1.297,3.754,0.996,5.539
	c-1.079,6.409,1.237,10.355,7.583,11.912c0.459,0.111,0.83,0.547,1.272,0.768c7.762,3.869,8.109,4.182,14.09-2.436
	c4.123-4.562,6.693-1.014,9.627,0.738c2.879,1.723,4.676,4.028,2.576,7.811c-1.396,2.517-2.073,5.433-1.852,7.185
	c3.636,4.757,7.271,9.515,10.865,14.223c4.263-2.133,7.401-3.441,10.26-5.21c2.58-1.596,4.207-0.768,5.751,1.31
	c0.198,0.267,0.444,0.496,0.64,0.764c4.736,6.523,4.745,6.533-0.73,13.111c-2.104,2.528-3.333,4.779-0.428,7.873
	c1.955,2.084,3.431,4.893,4.317,7.635c1.281,3.955,3.918,4.449,7.329,4.051c9.104-1.062,9.102-1.057,12.035,7.531
	c0.259,0.752,0.588,1.479,0.993,2.492c-0.796,0.49-1.497,0.823-2.083,1.299c-3.03,2.459-8.269,4.729-8.55,7.49
	c-0.494,4.853,1.581,10.211,3.574,14.938c0.721,1.707,4.226,2.442,6.595,3.191c2.258,0.713,4.692,0.866,7.094,1.273
	c0,4.291,0,8.101,0,11.8c-0.288,0.304-0.455,0.641-0.705,0.719c-11.766,3.703-11.539,3.715-12.293,15.887
	c-0.244,3.952-0.551,6.528,3.979,8.516c10.414,4.565,7.012,2.108,5.688,12.667c-0.117,0.933-0.634,1.813-1.1,3.087
	c-1.523,0-3.168-0.002-4.812,0c-8.632,0.016-8.083,0.271-11.749,8.118c-3.23,6.918-2.646,11.965,3.798,16.188
	c0.932,0.609,1.575,1.653,2.303,2.439c-5.026,10.816-5.083,11.021-15.923,8.031c-2.63-0.726-3.692-0.481-5.087,1.659
	c-1.513,2.327-3.433,4.415-5.337,6.456c-3.404,3.652-4.514,7.202-0.673,11.384c1.382,1.506,1.987,3.726,3.188,6.095
	c-2.602,2.271-5.143,4.824-8.062,6.827c-0.821,0.562-3.106-0.057-4.116-0.878c-5.492-4.468-10.015-5.563-16.229,0.005
	c-6.928,6.207-7.938,5.551-5.313,14.289c1.159,3.857-0.307,5.173-3.196,6.297c-7.422,2.886-7.42,2.857-12.666-3.893
	c-2-2.573-4.154-3.8-7.65-2.17c-3.213,1.499-7.117,1.63-10.151,3.356c-1.801,1.024-2.903,3.851-3.599,6.09
	c-0.801,2.587,0.078,7.053-1.334,7.814c-3.108,1.681-7.197,1.547-11.203,2.204c-1.828-4.34-3.518-8.354-5.186-12.317
	c-2.908,0-5.812,0-8.718,0c-2.965,0-5.929,0-9.63,0c-1.146,2.562-2.37,5.906-4.131,8.938c-0.778,1.342-2.578,2.739-4.038,2.891
	c-2.364,0.242-4.918-0.263-7.228-0.979c-1.056-0.327-2.207-1.81-2.449-2.95c-0.405-1.914-0.018-3.981-0.146-5.975
	c-0.2-3.113-0.741-6.016-4.901-6.024c-0.76-0.002-1.503-0.606-2.279-0.854C1539.503,529.604,1539.501,529.605,1531.829,540.47z
	 M1585.284,429.531c9.127,1.326,17.018-7.962,16.596-15.77c-0.498-9.226-6.944-16.295-16.014-16.354
	c-9.296-0.06-16.229,7.006-16.23,16.545C1569.632,422.384,1576.784,429.502,1585.284,429.531z M1544.388,412.307
	c0.104-0.665,0.208-1.33,0.312-1.996c-21.557-3.172-43.109-6.344-64.81-9.536c-0.48,3.922-0.933,7.579-1.418,11.532
	C1500.888,412.307,1522.638,412.307,1544.388,412.307z M1692.757,412.285c0-2.021,0.017-3.516-0.003-5.01
	c-0.07-5.339-1.419-6.549-6.479-5.843c-2.598,0.361-5.197,0.694-7.793,1.074c-13.431,1.963-26.864,3.895-40.284,5.935
	c-3.873,0.589-7.697,1.503-11.544,2.268c0.11,0.525,0.224,1.052,0.336,1.576C1648.729,412.285,1670.464,412.285,1692.757,412.285z
	 M1588.085,372.271c0.562,0.058,1.12,0.115,1.68,0.174c3.102-21.537,6.198-43.073,9.307-64.659
	c-4.304-0.561-7.625-0.992-10.984-1.429C1588.085,328.716,1588.085,350.493,1588.085,372.271z M1588.028,520.477
	c2.59,0,5.184,0.472,7.457-0.178c1.346-0.385,2.978-2.476,3.088-3.906c0.207-2.711-0.561-5.504-0.974-8.255
	c-1.938-12.926-3.877-25.852-5.854-38.771c-0.759-4.958-1.626-9.899-2.442-14.851c-0.426,0.058-0.851,0.115-1.273,0.173
	C1588.028,476.488,1588.028,498.289,1588.028,520.477z M1557.568,310.564c6.366,21.652,12.453,42.343,18.537,63.032
	c0.618-0.146,1.237-0.294,1.856-0.44c-3.132-21.539-6.264-43.077-9.465-65.09C1564.555,308.968,1561.127,309.751,1557.568,310.564z
	 M1593.759,373.116c0.566,0.167,1.134,0.333,1.699,0.5c6.131-20.742,12.263-41.486,18.634-63.039
	c-3.861-0.863-7.44-1.664-11.052-2.474C1599.845,330.489,1596.802,351.802,1593.759,373.116z M1572.566,307.798
	c3.138,21.713,6.235,43.162,9.337,64.608c0.467-0.047,0.934-0.096,1.398-0.143c0-21.887,0-43.773,0-66.008
	C1579.759,306.766,1576.539,307.228,1572.566,307.798z M1689.259,386.488c-9.767,0.97-60.78,16.916-62.257,19.501
	c9.501-1.252,18.896-2.408,28.264-3.748c10.351-1.48,20.644-3.442,31.028-4.553c3.994-0.428,4.904-2.012,4.416-5.315
	C1690.427,390.462,1689.794,388.604,1689.259,386.488z M1625.484,421.936c0.968,1.576,1.082,2.035,1.312,2.104
	c19.452,5.773,38.914,11.512,58.37,17.27c4.83,1.431,4.303-2.644,5.228-5.109c1-2.671,0.572-5.043-2.615-5.653
	c-3.205-0.612-6.512-0.681-9.747-1.152c-10.162-1.48-20.308-3.091-30.472-4.552C1640.482,423.821,1633.378,422.968,1625.484,421.936
	z M1568.726,519.248c3.046-21.49,6.091-42.974,9.135-64.456c-0.604-0.096-1.207-0.191-1.812-0.287
	c-6.049,20.66-12.097,41.321-18.271,62.417C1561.595,517.732,1564.916,518.438,1568.726,519.248z M1583.311,454.673
	c-0.438-0.029-0.875-0.059-1.312-0.088c-3.075,21.438-6.151,42.877-9.319,64.963c3.643,0.408,7.099,0.796,10.632,1.192
	C1583.311,498.218,1583.311,476.444,1583.311,454.673z M1617.979,311.591c-5.847,21.229-12.87,41.992-18.138,63.228
	c0.462,0.124,0.923,0.248,1.386,0.372c9.05-19.798,18.101-39.596,27.214-59.53C1624.888,314.279,1621.55,312.981,1617.979,311.591z
	 M1545.034,405.992c0.133-0.461,0.265-0.923,0.396-1.384c-3.147-1.037-6.271-2.167-9.451-3.096
	c-16.23-4.735-32.47-9.455-48.734-14.063c-1.538-0.438-4.576-0.514-4.747-0.014c-0.926,2.698-1.277,5.621-1.526,8.493
	c-0.04,0.454,1.394,1.362,2.238,1.509c2.899,0.497,5.852,0.688,8.768,1.104c10.668,1.525,21.324,3.124,31.993,4.635
	C1530.982,404.169,1538.013,405.058,1545.034,405.992z M1543.177,315.675c9.203,20.104,18.123,39.586,27.042,59.07
	c0.562-0.229,1.12-0.455,1.683-0.683c-6.101-20.793-12.197-41.586-18.357-62.592C1549.835,312.976,1546.85,314.188,1543.177,315.675
	z M1545.878,423.226c-0.125-0.384-0.25-0.769-0.374-1.15c-6.729,0.838-13.477,1.586-20.191,2.534
	c-13.282,1.875-26.558,3.817-39.813,5.858c-1.646,0.253-4.551,1.355-4.518,1.923c0.174,2.868,0.933,5.766,1.995,8.449
	c0.178,0.443,2.957,0.154,4.407-0.25c15.538-4.331,31.065-8.702,46.562-13.188C1537.984,426.233,1541.903,424.63,1545.878,423.226z
	 M1483.521,381.901c21.291,6.233,42.063,12.315,62.839,18.397c0.211-0.549,0.422-1.097,0.633-1.646
	c-19.678-9.001-39.357-18.002-59.36-27.151C1486.225,375.062,1484.927,378.347,1483.521,381.901z M1687.954,381.905
	c-1.488-3.736-2.826-7.096-4.15-10.417c-20.291,9.349-39.879,18.373-59.467,27.396c0.213,0.515,0.426,1.026,0.638,1.541
	C1645.796,394.304,1666.616,388.181,1687.954,381.905z M1602.915,519.102c2.166-0.464,4.211-1.248,6.265-1.272
	c4.959-0.062,4.432-2.54,3.354-6.046c-3.101-10.111-5.859-20.326-8.874-30.464c-2.729-9.179-5.617-18.309-8.437-27.459
	c-0.506,0.088-1.012,0.177-1.518,0.265C1596.775,475.761,1599.841,497.399,1602.915,519.102z M1565.157,377.865
	c0.47-0.271,0.938-0.539,1.407-0.81c-9.029-19.82-18.062-39.644-27.138-59.562c-3.496,1.799-6.528,3.359-9.916,5.104
	C1541.536,341.241,1553.347,359.554,1565.157,377.865z M1547.484,429.249c-0.18-0.529-0.355-1.062-0.533-1.591
	c-20.764,6.072-41.526,12.146-62.909,18.398c1.35,3.705,2.553,7.009,3.788,10.396
	C1507.961,447.274,1527.723,438.262,1547.484,429.249z M1687.809,446.106c-21.386-6.247-42.091-12.295-62.796-18.342
	c-0.198,0.518-0.398,1.034-0.6,1.552c19.678,9.006,39.355,18.013,59.353,27.164C1685.118,453.009,1686.332,449.896,1687.809,446.106
	z M1604.999,377.058c0.481,0.291,0.965,0.582,1.444,0.873c11.798-18.346,23.595-36.69,35.513-55.229
	c-3.688-2.023-6.66-3.652-9.695-5.316C1623.122,337.39,1614.061,357.224,1604.999,377.058z M1601.005,452.432
	c-0.53,0.155-1.062,0.312-1.59,0.467c6.112,20.898,12.226,41.799,18.417,62.964c3.839-1.55,6.923-2.793,10.296-4.154
	C1618.961,491.674,1609.982,472.053,1601.005,452.432z M1548.9,394.888c0.271-0.487,0.541-0.977,0.812-1.463
	c-18.344-11.791-36.688-23.582-55.312-35.553c-1.808,3.721-3.329,6.863-4.81,9.909C1509.655,376.95,1529.278,385.919,1548.9,394.888
	z M1677.012,357.962c-18.428,11.875-36.541,23.545-54.654,35.217c0.271,0.488,0.541,0.979,0.812,1.468
	c19.563-8.921,39.13-17.843,59.253-27.017C1680.528,364.249,1678.889,361.317,1677.012,357.962z M1668.031,345.593
	c-16.56,14.377-33.022,28.674-49.488,42.972c0.316,0.432,0.634,0.862,0.95,1.295c18.37-11.804,36.741-23.605,55.25-35.498
	C1672.395,351.292,1670.27,348.516,1668.031,345.593z M1654.413,331.62c-3.492-2.529-6.107-4.422-8.959-6.486
	c-11.79,18.373-23.408,36.48-35.027,54.589c0.449,0.347,0.899,0.69,1.352,1.036C1625.902,364.479,1640.028,348.197,1654.413,331.62z
	 M1571.974,453.075c-0.479-0.172-0.963-0.345-1.441-0.519c-8.92,19.555-17.843,39.108-26.919,59.009
	c2.663,1.115,4.967,1.898,7.093,3.02c2.373,1.252,3.336,0.843,4.111-1.874c4.688-16.401,9.592-32.742,14.38-49.116
	C1570.213,460.114,1571.052,456.583,1571.974,453.075z M1552.218,389.503c0.237-0.348,0.477-0.695,0.713-1.044
	c-16.346-14.165-32.689-28.331-48.956-42.427c-8.104,7.012-8.153,7.729-0.669,12.602c14.221,9.256,28.48,18.449,42.76,27.613
	C1548.011,387.495,1550.161,388.426,1552.218,389.503z M1517.425,331.818c14.479,16.689,28.688,33.073,42.898,49.456
	c0.423-0.299,0.846-0.599,1.268-0.896c-11.791-18.375-23.582-36.75-35.606-55.487
	C1522.906,327.382,1520.261,329.523,1517.425,331.818z M1555.47,384.89c0.395-0.375,0.786-0.752,1.182-1.127
	c-14.105-16.322-28.212-32.646-41.971-48.566c-2.708,2.379-5.484,4.819-8.243,7.243
	C1523.032,356.807,1539.251,370.849,1555.47,384.89z M1606.232,449.705c-0.48,0.239-0.963,0.479-1.444,0.718
	c8.985,19.732,17.97,39.465,27.039,59.383c2.143-0.963,3.757-1.704,5.384-2.417c3.327-1.459,4.633-2.965,1.78-6.582
	c-3.511-4.45-6.172-9.568-9.24-14.373C1621.925,474.183,1614.074,461.946,1606.232,449.705z M1549.811,434.53
	c-0.259-0.464-0.518-0.929-0.774-1.392c-19.76,9.036-39.521,18.073-59.596,27.254c2.154,3.478,3.979,6.416,5.807,9.359
	C1513.778,457.79,1531.794,446.16,1549.811,434.53z M1681.734,460.163c-19.989-9.122-39.593-18.064-59.19-27.009
	c-0.301,0.471-0.601,0.941-0.899,1.414c0.81,0.571,1.599,1.175,2.431,1.711c15.053,9.712,30.061,19.495,45.188,29.089
	C1677.15,470.373,1677.248,470.222,1681.734,460.163z M1497.402,473.373c1.739,2.296,3.229,4.666,5.162,6.595
	c0.7,0.699,2.948,0.948,3.649,0.375c5.469-4.483,10.711-9.243,16.064-13.869c9.452-8.167,18.949-16.28,28.38-24.476
	c0.889-0.771,1.425-1.949,2.125-2.938c-0.301-0.238-0.601-0.479-0.899-0.716C1533.83,449.952,1515.775,461.562,1497.402,473.373z
	 M1539.575,510.159c9.146-20.02,18.098-39.613,27.049-59.209c-0.484-0.279-0.969-0.562-1.453-0.841
	c-11.621,18.062-23.242,36.127-35.103,54.559C1533.332,506.553,1536.097,508.149,1539.575,510.159z M1657.191,334.929
	c-14.321,16.539-28.356,32.746-42.393,48.953c0.36,0.396,0.723,0.789,1.083,1.186c16.337-14.119,32.674-28.239,49.083-42.419
	C1662.377,340.075,1660.071,337.788,1657.191,334.929z M1615.341,442.48c-0.354,0.381-0.71,0.763-1.062,1.144
	c14.26,16.44,28.521,32.882,42.333,48.806c3.224-2.612,5.853-4.742,8.474-6.867C1648.166,470.909,1631.754,456.695,1615.341,442.48z
	 M1674.148,473.281c-18.658-11.957-36.727-23.533-54.789-35.108c-0.307,0.437-0.609,0.871-0.914,1.308
	c16.379,14.182,32.758,28.364,49.406,42.782C1670.206,478.905,1672.056,476.266,1674.148,473.281z M1517.619,496.05
	c3.031,2.195,5.868,4.251,8.849,6.41c11.953-18.652,23.711-37.002,35.47-55.352c-0.405-0.289-0.812-0.577-1.221-0.865
	C1546.392,462.799,1532.066,479.354,1517.619,496.05z M1479.974,427.308c21.764-3.194,43.084-6.325,64.406-9.457
	c-0.058-0.391-0.115-0.778-0.172-1.169c-21.746,0-43.492,0-65.688,0C1479.023,420.363,1479.482,423.72,1479.974,427.308z
	 M1653.952,495.971c-14.326-16.533-28.5-32.893-42.674-49.25c-0.434,0.298-0.863,0.597-1.298,0.895
	c11.692,18.229,23.388,36.459,35.115,54.745C1647.9,500.337,1650.544,498.43,1653.952,495.971z M1514.984,492.556
	c14.177-16.407,28.226-32.667,42.272-48.926c-0.381-0.347-0.762-0.69-1.143-1.037c-16.278,14.125-32.559,28.25-48.634,42.198
	C1510.218,487.622,1512.476,489.959,1514.984,492.556z M1691.64,427.171c0.469-3.577,0.898-6.891,1.371-10.52
	c-22.427,0-44.105,0-65.787,0c-0.056,0.422-0.108,0.844-0.166,1.266C1648.391,420.974,1669.724,424.03,1691.64,427.171z"/>
<path d="M1396.278,208.104c3.271-2.772,6.67-5.649,10.416-8.826c3.12,2.072,6.46,4.289,10.232,6.798
	c-1.573,4.166-3.166,8.38-4.858,12.861c4.294,3.926,8.793,8.037,13.407,12.256c3.062-1.295,6.346-2.35,9.275-4.021
	c2.769-1.578,4.288-0.496,5.801,1.588c4.677,6.445,4.718,6.471-0.589,13.717c-2.003,2.734-3.04,5.279-0.218,8.146
	c1.016,1.031,1.774,2.367,2.46,3.666c4.632,8.777,4.595,8.682,14.373,6.768c1.293-0.254,3.588,0.809,4.259,1.943
	c1.549,2.621,2.386,5.666,3.599,8.762c-2.84,2.102-5.897,4.018-8.487,6.436c-1.134,1.059-1.979,3.227-1.792,4.744
	c0.52,4.189,1.47,8.354,2.654,12.406c0.344,1.174,1.932,2.518,3.168,2.791c3.332,0.736,6.782,0.941,10.25,1.363
	c0.163,0.566,0.38,1.014,0.414,1.477c0.276,3.584,1.911,8.041,0.37,10.503c-1.461,2.34-6.349,2.395-9.544,3.854
	c-1.193,0.547-2.354,2.109-2.681,3.42c-0.668,2.683-0.808,5.504-1.082,8.275c-0.471,4.77-0.536,9.217,5.672,10.615
	c2.151,0.485,4.068,2.014,6.446,3.243c-1.249,4.041-1.334,9.556-4.024,11.543c-2.681,1.984-7.976,0.438-12.166,0.438
	c-2.181,5.225-4.293,10.104-6.209,15.063c-0.311,0.806,0.015,2.08,0.478,2.894c0.56,0.979,1.579,1.688,2.401,2.518
	c6.826,6.834,6.928,7.357,1.214,15.092c-0.63,0.853-2.521,1.4-3.621,1.158c-3.623-0.797-7.152-2.022-10.761-3.098
	c-3.615,4.678-7.213,9.324-11.125,14.383c1.369,2.646,2.618,5.857,4.562,8.578c1.987,2.785,1.086,4.578-1.059,6.352
	c-2.146,1.779-4.371,3.459-7.144,5.642c-7.034-9.4-14.349-6.955-21.65,0.084c-1.012,0.973-2.538,1.412-4.014,2.195
	c0.846,4.461,1.685,8.891,2.693,14.221c-3.908,1.209-8.347,4.154-11.521,3.145c-3.517-1.119-5.877-5.86-8.475-8.729
	c-5.964,1.846-11.549,3.574-17.229,5.332c-0.507,3.928,0.229,9.1-1.983,12.071c-1.868,2.507-7.163,2.457-11.442,3.683
	c-1.448-3.738-2.474-7.185-4.13-10.291c-0.728-1.361-2.688-2.777-4.185-2.887c-4.964-0.359-9.97-0.136-15-0.136
	c-1.854,4.306-3.644,8.455-5.386,12.5c-12.295-1.266-12.295-1.266-13.573-15.065c-5.058-1.551-10.127-3.299-15.317-4.56
	c-1.258-0.305-3.364,0.593-4.306,1.638c-7.438,8.252-7.38,8.305-16.847,2.881c-2.233-5.238,5.479-10.461-0.726-15.232
	c-7.479-5.752-15.057-12.387-23.036-0.785c-3.056-2.5-5.769-4.389-8.007-6.729c-0.774-0.812-0.905-2.973-0.414-4.125
	c1.396-3.283,3.265-6.365,5.025-9.674c-1.981-2.406-4.014-4.769-5.919-7.224c-1.798-2.315-3.466-4.739-5.312-7.282
	c-4.178,1.194-8.352,2.393-13.217,3.784c-1.619-2.896-3.906-5.805-4.794-9.088c-0.438-1.623,1.298-4.33,2.761-5.877
	c5.538-5.862,4.744-5.52,2.675-13.266c-2.104-7.877-6.206-10.248-13.612-8.92c-3.161,0.563-4.326-1.188-4.673-4.138
	c-0.316-2.713-1.086-5.372-1.699-8.264c1.451-0.766,3.018-1.631,4.615-2.428c7.312-3.646,8.604-6.213,7.048-14.137
	c-0.062-0.318-0.371-0.636-0.339-0.927c0.887-7.729-4.855-8.973-10.25-9.953c-2.987-0.545-3.592-1.946-3.284-4.375
	c0.387-3.061,0.938-6.102,1.417-9.149c2.385-0.447,4.861-1.539,7.14-1.217c5.647,0.805,6.534-2.75,7.193-6.834
	c0.157-0.977,0.183-1.98,0.432-2.932c2.354-9.004,2.341-8.965-5.05-14.053c-2.098-1.443-3.887-2.529-2.46-6.201
	c3.497-9.01,3.297-9.449,12.713-6.854c3.14,0.865,4.384,0.352,5.646-2.436c1.547-3.416,3.181-6.934,5.515-9.809
	c2.207-2.719,1.04-4.537-0.449-6.52c-1.867-2.482-3.951-4.805-5.921-7.172c7.125-9.883,7.125-9.883,19.96-4.623
	c3.76-3.277,7.639-6.383,11.13-9.873c1.093-1.09,1.801-3.338,1.535-4.854c-0.62-3.555-3.53-7.562-2.536-10.308
	c1.066-2.942,5.542-4.651,8.563-6.928c3.7,3.121,7.216,6.082,10.716,9.033c3.553-1.676,6.998-3.494,10.591-4.951
	c5.439-2.207,6.884-4.826,5.561-10.643c-0.427-1.875-0.63-3.802-0.947-5.789c4.354-1.285,8.222-2.425,12.322-3.634
	c2.216,3.839,4.397,7.619,6.637,11.496c4.222-0.475,8.416-0.846,12.575-1.444c3.658-0.527,6.873-1.438,6.951-6.354
	c0.041-2.469,1.382-4.918,2.2-7.592c1.454,0,2.771,0.004,4.091-0.002c8.062-0.039,8.623-0.131,9.819,7.352
	c0.831,5.197,3.79,6.162,7.855,6.642c3.87,0.453,7.744,0.885,11.766,1.344c0.204-0.227,0.636-0.541,0.854-0.965
	c5.729-11.168,5.727-11.17,17.938-6.717c0,2.062,0.318,4.268-0.059,6.346c-1.325,7.313-1.244,7.436,5.49,10.027
	C1389.359,204.563,1392.506,206.309,1396.278,208.104z M1312.761,231.364c5.054,15.766,9.979,31.25,15.057,46.686
	c0.309,0.936,1.758,1.93,2.812,2.117c7.668,1.359,9.183,0.391,11.691-6.965c0.368-1.078,0.778-2.143,1.128-3.229
	c4.104-12.795,8.205-25.592,12.377-38.609C1341.215,231.364,1327.128,231.364,1312.761,231.364z M1408.034,362.438
	c4.493-14.026,8.768-27.368,13.167-41.104c-17.643,0-34.396,0-51.091,0c-1.229,3.744-2.393,7.289-3.613,11.018
	C1380.201,342.278,1393.785,352.118,1408.034,362.438z M1260.684,362.44c11.864-8.646,23.349-16.896,34.692-25.328
	c6.976-5.185,6.976-5.345,4.238-13.086c-0.425-1.199-2.152-2.75-3.291-2.763c-16.112-0.18-32.229-0.123-49.029-0.123
	C1251.822,335.108,1256.159,348.487,1260.684,362.44z M1355.774,399.985c-5.061-15.642-10.018-30.945-14.956-46.257
	c-1.482-4.594-5.292-1.924-8.021-2.559c-2.596-0.604-4.253,0.4-5.115,3.146c-3.271,10.409-6.735,20.76-10.08,31.146
	c-1.549,4.811-2.983,9.658-4.481,14.521C1327.653,399.985,1341.562,399.985,1355.774,399.985z M1366.458,396.812
	c11.623-8.446,22.933-16.668,34.657-25.188c-1.867-1.406-3.404-2.605-4.981-3.748c-10.985-7.955-22.118-15.725-32.88-23.975
	c-2.622-2.011-4.324-1.709-6.497-0.244c-2.013,1.356-3.918,2.875-6.145,4.524C1355.779,364.042,1361.007,380.083,1366.458,396.812z
	 M1308.895,341.372c-13.567,9.861-27.405,19.92-41.566,30.213c12.01,8.674,23.304,16.83,34.91,25.211
	c5.427-16.812,10.604-32.856,15.654-48.5C1314.711,345.849,1312.004,343.765,1308.895,341.372z M1308.673,290.327
	c2.118-1.518,3.583-2.953,5.339-3.744c3.887-1.754,3.909-4.311,2.674-7.898c-4.933-14.316-9.638-28.717-14.604-43.615
	c-11.469,8.354-22.937,16.703-34.652,25.236C1281.534,270.573,1295.096,280.444,1308.673,290.327z M1301.839,299.288
	c-12.958-9.426-26.548-19.312-41.092-29.893c-4.504,13.805-8.833,27.076-13.331,40.859c13.443,0,26.102-0.346,38.729,0.123
	C1294.465,310.688,1301.877,310.827,1301.839,299.288z M1421.202,310.251c-4.496-13.875-8.734-26.955-13.034-40.227
	c-0.949,0.262-1.851,0.277-2.452,0.711c-10.983,7.918-21.94,15.875-32.889,23.846c-6.525,4.752-6.82,5.502-3.862,13.049
	c0.452,1.152,2.282,2.498,3.488,2.51C1388.395,310.308,1404.337,310.251,1421.202,310.251z M1401.211,260.267
	c-11.72-8.508-23.01-16.705-34.767-25.24c-5.452,16.834-10.634,32.834-15.78,48.729c3.293,2.344,6.196,4.41,9.241,6.578
	C1373.598,280.366,1387.254,270.425,1401.211,260.267z M1350.805,316.392c1.141-9.551-8.468-17.562-16.657-17.313
	c-8.867,0.268-16.354,7.703-16.491,16.604c-0.148,9.535,6.813,16.484,17.006,17.341
	C1342.467,333.677,1350.793,324.659,1350.805,316.392z M1359.307,411.282c-16.692,0-33.293,0-50.116,0
	c-0.819,2.428-1.636,4.844-2.614,7.746c18.585,4.926,36.847,5.446,55.329-0.15C1360.9,415.942,1360.121,413.665,1359.307,411.282z
	 M1228.051,321.62c-0.104,0.416-0.304,0.873-0.326,1.338c-0.055,1.162-0.16,2.346-0.02,3.49
	c1.934,15.565,6.676,30.223,14.637,43.754c0.751,1.274,3.869,2.74,4.109,2.479c1.725-1.875,5.44-2.297,3.893-6.717
	c-4.52-12.896-8.438-26.002-12.629-39.014C1235.672,320.608,1235.532,320.56,1228.051,321.62z M1433.046,321.249
	c-5.229,16.104-10.405,32.033-15.581,47.961c1.254,0.982,2.35,1.691,3.26,2.584c2.285,2.236,3.949,2.016,5.234-1.008
	c3.812-8.967,8.285-17.713,11.32-26.935c2.343-7.112,2.905-14.813,4.323-22.604C1437.932,321.249,1435.783,321.249,1433.046,321.249
	z M1227.564,309.679c6.338,1.908,8.801-0.377,10.323-5.643c3.479-12.029,7.394-23.943,11.491-35.779
	c1.931-5.57,2.382-6.771-5.089-9.922C1234.177,273.987,1228.854,291.146,1227.564,309.679z M1423.965,258.22
	c-3.854,1.943-7.418,3.506-5.289,9.391c4.368,12.078,8.082,24.395,12.066,36.613c2.204,6.754,2.554,6.943,9.761,5.363
	C1441.711,297.214,1433.475,271.034,1423.965,258.22z M1309.208,220.257c14.695,0,29.312,0,43.926-0.002c7.16,0,7.16,0,8.548-7.639
	c-18.267-4.832-36.508-4.789-54.996-0.006C1307.524,215.155,1308.326,217.583,1309.208,220.257z M1251.732,383.493
	c11.991,14.562,26.525,25.438,44.29,31.988c2.572-6.947,2.638-7.033-1.671-10.244c-10.219-7.615-20.625-14.979-30.695-22.781
	C1259.225,379.022,1255.552,377.87,1251.732,383.493z M1370.027,223.647c13.821,10.059,27.282,19.855,40.675,29.6
	c1.288-0.777,2.403-1.441,3.507-2.123c1.121-0.691,2.23-1.4,3.469-2.178c-13.136-14.793-27.088-26.27-44.688-32.447
	c-0.471,0.424-0.659,0.512-0.708,0.648C1371.529,219.284,1370.794,221.427,1370.027,223.647z M1416.936,383.188
	c-6.595-4.889-6.483-4.733-12.9,0.082c-9.65,7.24-19.44,14.298-29.253,21.318c-5.011,3.586-5.313,5.076-1.446,10.529
	C1390.846,408.362,1403.498,399.13,1416.936,383.188z M1295.889,216.106c-17.791,7.477-32.627,17.771-44.311,32.609
	c2.563,1.902,4.376,3.246,6.237,4.627c13.669-9.961,27.202-19.824,40.665-29.633
	C1297.608,221.153,1296.831,218.876,1295.889,216.106z"/>
<path d="M1243.388,210.701c-1.593,2.825-3.189,5.648-4.773,8.48c-1.806,3.228-4.562,1.199-6.539,0.749
	c-8.285-1.886-7.256-0.948-13.406,4.521c-7.271,6.466-4.563,11.271-0.471,17.052c0.369,0.521,0.633,1.122,0.782,1.394
	c-3.052,3.056-5.954,5.966-9.041,9.058c-3.556-2.372-7.442-4.967-11.014-7.349c-3.708,2.612-7.038,5.328-10.713,7.442
	c-3.698,2.128-5.188,4.454-3.371,8.715c0.994,2.327,1.048,5.058,1.501,7.477c-14.37,7.722-10.043,6.023-19.532-4.987
	c-5.55,1.697-11.259,3.442-17.479,5.346c-0.499,4.025-1.04,8.388-1.646,13.248c-3.6,0.703-7.529,1.47-11.938,2.329
	c-3.043-6-3.041-13.588-14.172-13.675c-11.049-0.087-11.546,6.984-14.658,13.433c-4.225-0.696-8.312-1.372-12.396-2.046
	c1.912-11.092-3.424-15.829-13.452-16.886c-1.714-0.181-3.339-1.21-5.078-1.876c-2.058,2.635-4.077,5.183-6.052,7.768
	c-1.641,2.148-3.391,2.825-5.942,1.249c-2.333-1.438-4.929-2.45-7.974-3.925c1.68-6.724,4.592-12.568-4.618-18.749
	c-9.204-6.175-13.317-0.392-19.155,2.957c-2.928-3.117-5.541-5.896-8.551-9.101c1.896-3.591,4.061-7.687,6.121-11.586
	c-3.771-4.717-7.453-9.323-11.303-14.138c-1.776,0.471-3.816,0.92-5.801,1.55c-7.74,2.458-7.74,2.482-11.381-4.69
	c-0.592-1.166-1.099-2.375-2.23-4.846c1.412-1.062,3.318-2.385,5.1-3.859c1.664-1.38,3.191-2.922,4.925-4.525
	c-2-4.859-3.719-9.58-5.922-14.062c-0.663-1.35-2.589-2.704-4.082-2.893c-3.416-0.427-6.922-0.135-10.029-0.135
	c-0.454-0.549-0.591-0.65-0.646-0.787c-3.414-8.483-1.463-14.337,7.953-16.912c0.902-0.246,1.822-2.545,1.764-3.845
	c-0.234-4.922-0.869-9.825-1.387-15.057c-1.666-0.576-3.639-1.263-5.609-1.938c-6.792-2.32-8.65-5.448-6.712-12.263
	c0.36-1.266,2.216-2.524,3.637-2.973c2.309-0.728,5.029-0.32,7.191-1.271c1.628-0.715,3.021-2.623,3.845-4.327
	c0.82-1.698,0.732-3.819,1.158-5.729c1.939-8.714,2.145-9.034-5.538-13.524c-3.577-2.091-3.312-4.139-2.116-7.072
	c0.613-1.509,0.816-3.361,1.84-4.477c1.073-1.168,2.914-2.291,4.406-2.271c2.707,0.033,5.387,1.082,8.113,1.381
	c0.947,0.104,2.018-0.723,2.988-1.21c0.211-0.106,0.191-0.609,0.354-0.89c2.674-4.661,5.359-9.315,7.92-13.759
	c-1.314-1.88-2.429-3.501-3.573-5.101c-1.419-1.982-4.462-4.576-3.979-5.794c1.201-3.051,3.77-5.719,6.273-8.01
	c0.842-0.769,3.357-0.397,4.744,0.239c8.684,3.996,8.648,4.069,15.446-2.729c6.537-6.539,6.681-6.604,2.954-14.928
	c-1.185-2.643-1.012-4.11,1.477-5.594c2.64-1.572,5.08-3.472,8.199-5.639c2.939,3.466,5.733,6.762,8.424,9.937
	c6.324-2.972,11.914-5.598,17.297-8.126c0-4.703,0-9.135,0-13.884c3.596-1.082,7.276-2.191,11.283-3.397
	c1.521,2.543,3.43,4.888,4.414,7.57c1.525,4.157,4.514,3.989,7.818,3.438c4.181-0.698,8.343-1.502,12.887-2.328
	c0.449-2.137,1.043-4.485,1.419-6.868c0.692-4.395,2.719-6.719,7.579-5.809c2.082,0.39,4.299,0.065,6.776,0.065
	c0.938,4.223,1.845,8.309,2.806,12.646c5.962,0.994,12.032,2.007,18.215,3.038c2.288-3.765,4.646-7.646,7.219-11.879
	c3.697,1.213,7.34,2.409,11.145,3.656c0,4.58,0,9.063,0,13.606c5.377,2.634,10.617,5.199,17.223,8.435
	c1.758-2.055,3.721-4.725,6.076-6.986c1.906-1.831,3.896-2.411,6.668-0.363c6.949,5.138,7.477,5.099,3.709,13.193
	c-1.648,3.544-0.856,5.266,1.631,7.395c3.343,2.86,6.535,5.897,10.312,9.335c2.521-1.191,5.646-2.542,8.648-4.127
	c2.335-1.232,3.752-1.226,5.676,1.177c5.645,7.045,6.131,7.175,0.299,13.854c-2.943,3.371-2.857,5.67-0.105,8.575
	c0.338,0.356,0.619,0.775,0.879,1.194c2.103,3.392,3.475,8.395,6.484,9.743c3.108,1.393,7.81-0.767,11.797-1.368
	c6.615,13.851,7.396,9.527-5.899,19.188c0.911,4.548,2.075,9.1,2.691,13.724c0.881,6.607,6.463,5.167,10.243,5.733
	c3.587,0.538,4.861,1.386,4.816,5.069c-0.102,8.285,0.071,8.297-7.676,10.877c-1.688,0.562-3.402,1.029-4.893,1.478
	c-0.509,5.612-1.137,11.008-1.363,16.42c-0.043,1.026,1.283,2.444,2.338,3.123c3.058,1.965,7.752,2.942,9.05,5.636
	c1.248,2.591-0.938,6.84-1.637,10.355c-0.058,0.286-0.276,0.54-0.419,0.808c-0.329,0.099-0.637,0.254-0.955,0.276
	c-4.244,0.312-10.154-0.999-12.354,1.277c-3.457,3.581-4.471,9.555-6.361,14.573c-0.229,0.607,0.324,1.699,0.804,2.354
	c2.257,3.077,4.616,6.08,6.938,9.11C1242.263,211.159,1242.825,210.929,1243.388,210.701z M1116.271,224.259
	c0-9.638-0.883-18.706,0.203-27.533c1.697-13.788-3.465-23.271-13.273-32.854c-8.916-8.711-17.402-13.318-29.899-11.939
	c-9.476,1.046-19.16,0.208-29.146,0.208c0,8.713-0.09,16.832,0.094,24.946c0.027,1.254,1.06,2.713,2.021,3.684
	c13.709,13.816,27.465,27.589,41.291,41.286c1.064,1.055,2.734,2.069,4.147,2.104
	C1099.668,224.363,1107.632,224.259,1116.271,224.259z M1127.152,224.262c7.808,0,14.944,0.185,22.063-0.115
	c2.045-0.085,4.523-1.059,5.969-2.476c13.658-13.396,27.145-26.968,40.65-40.517c0.907-0.911,2.252-2.03,2.272-3.077
	c0.187-8.567,0.104-17.143,0.104-25.934c-15.006,0-29.301-0.048-43.596,0.082c-1.271,0.013-2.789,0.909-3.749,1.85
	c-7.367,7.215-14.661,14.506-21.87,21.878c-0.933,0.952-1.758,2.502-1.771,3.781
	C1127.109,194.351,1127.152,208.968,1127.152,224.262z M1116.267,70.142c-8.572,0-16.385-0.121-24.187,0.103
	c-1.571,0.045-3.446,1.052-4.606,2.195c-13.729,13.562-27.358,27.223-40.967,40.907c-0.985,0.993-2.205,2.373-2.235,3.602
	c-0.2,7.934-0.104,15.875-0.104,24.299c15.407,0,30.333,0.04,45.258-0.085c1.092-0.009,2.354-1.037,3.231-1.902
	c7.228-7.121,14.413-14.284,21.521-21.523c0.956-0.976,1.986-2.443,1.998-3.692C1116.318,99.605,1116.267,85.166,1116.267,70.142z
	 M1127.152,70.146c0,15.303-0.068,29.78,0.102,44.258c0.018,1.557,1.104,3.409,2.246,4.591c6.479,6.697,13.027,13.342,19.802,19.738
	c1.479,1.396,3.956,2.373,5.999,2.42c10.483,0.238,20.979,0.109,31.465,0.11c3.754,0,7.506-0.001,11.504-0.001
	c0-8.718,0.105-16.696-0.102-24.667c-0.036-1.407-1.109-3.054-2.171-4.126c-13.235-13.368-26.538-26.67-39.896-39.916
	c-1.086-1.077-2.686-2.264-4.073-2.301C1143.917,70.036,1135.8,70.146,1127.152,70.146z M1137.271,147.2
	c0.525-10.459-7.675-16.742-15.97-16.796c-8.196-0.053-16.007,7.079-16.255,16.281c-0.244,9.087,8.281,16.541,15.984,16.579
	C1130.2,163.311,1137.271,156.326,1137.271,147.2z M1198.264,196.45c-9.321,9.312-18.621,18.603-27.834,27.805
	c7.22,0,14.993,0.316,22.708-0.234c1.815-0.129,4.766-3.088,4.895-4.907C1198.58,211.401,1198.264,203.627,1198.264,196.45z
	 M1071.688,224.255c-9.229-9.23-18.51-18.515-27.531-27.54c0,6.82-0.352,14.453,0.238,22.012c0.152,1.961,3.135,5.13,5.01,5.276
	C1057.089,224.606,1064.849,224.255,1071.688,224.255z M1044.157,97.414c9.188-9.168,18.152-18.115,27.304-27.245
	c-7.753,0-15.662-0.202-23.541,0.198c-1.322,0.066-3.52,2.696-3.593,4.228C1043.954,82.2,1044.157,89.833,1044.157,97.414z
	 M1198.247,97.557c0-7.825,0.178-15.725-0.174-23.6c-0.061-1.318-2.361-3.567-3.706-3.627c-7.858-0.348-15.741-0.171-23.497-0.171
	C1180.091,79.387,1189.044,88.347,1198.247,97.557z M1226.413,166.375c-6.013,6.034-11.162,11.186-16.277,16.37
	c-0.435,0.438-0.898,1.105-0.905,1.671c-0.061,7.331-0.039,14.662-0.039,22.989C1218.044,194.619,1223.331,181.679,1226.413,166.375
	z M1180.585,59.242c-11.644-8.565-24.101-14.321-38.123-16.695c4.885,5.469,10.037,10.603,15.247,15.677
	c0.537,0.522,1.419,0.968,2.146,0.976C1166.765,59.271,1173.675,59.242,1180.585,59.242z M1226.304,127.044
	c-2.895-15.17-8.537-27.713-16.668-39.302c-0.479,6.845-0.518,13.594-0.435,20.341c0.011,0.893,0.406,1.999,1.016,2.63
	C1215.257,115.934,1220.389,121.066,1226.304,127.044z M1101.166,42.001c-15.146,3.225-27.929,8.225-40.29,17.259
	c7.717,0,14.194,0.045,20.67-0.045c1.062-0.015,2.41-0.315,3.13-1.003C1089.938,53.187,1095.07,48.029,1101.166,42.001z
	 M1033.271,206.363c0-7.389,0.021-13.863-0.024-20.341c-0.008-0.942-0.031-2.197-0.594-2.776c-4.89-5.024-9.9-9.929-15.277-15.267
	C1017.087,176.612,1025.961,197.985,1033.271,206.363z M1179.592,235.16c-6.888,0-13.774-0.028-20.663,0.041
	c-0.729,0.008-1.628,0.413-2.154,0.931c-4.832,4.732-9.602,9.531-14.389,14.311C1156.208,248.698,1168.521,243.743,1179.592,235.16z
	 M1061.938,235.142c9.672,7.879,31.307,16.522,38.553,15.325c-5.066-4.926-9.756-9.594-14.604-14.092
	c-0.84-0.779-2.344-1.159-3.551-1.18C1075.871,235.083,1069.402,235.142,1061.938,235.142z M1033.271,87.417
	c-7.909,9.117-16.784,31.138-15.159,37.956c4.739-4.904,9.301-9.488,13.663-14.253c0.882-0.961,1.399-2.598,1.433-3.938
	C1033.354,100.875,1033.271,94.559,1033.271,87.417z M1209.375,140.973c5.141,0,9.7,0,13.515,0
	c-4.502-4.386-9.223-8.984-13.515-13.167C1209.375,131.534,1209.375,136.124,1209.375,140.973z M1116.031,235.545
	c-5.049,0-9.702,0-13.646,0c4.453,4.5,9.049,9.146,13.646,13.79C1116.031,245.004,1116.031,240.438,1116.031,235.545z
	 M1115.939,59.175c0-5.101,0-9.766,0-12.854c-4.07,4.027-8.758,8.666-12.988,12.854C1106.472,59.175,1110.95,59.175,1115.939,59.175
	z M1141.015,59.166c-4.646-4.562-9.35-9.18-13.459-13.214c0,3.715,0,8.429,0,13.214
	C1132.438,59.166,1136.915,59.166,1141.015,59.166z M1019.573,152.368c4.458,4.566,9.018,9.237,13.346,13.673
	c0-4.222,0-8.915,0-13.673C1027.995,152.368,1023.425,152.368,1019.573,152.368z M1224.335,152.567c-5.329,0-10.099,0-14.743,0
	c0,4.912,0,9.555,0,14.471C1214.589,162.133,1219.21,157.597,1224.335,152.567z M1019.076,140.903c5.188,0,9.555,0,13.727,0
	c0-4.658,0-8.941,0-13.605C1028.114,131.944,1023.867,136.154,1019.076,140.903z M1127.366,248.597
	c4.502-4.507,8.778-8.792,13.146-13.166c-4.237,0-8.585,0-13.146,0C1127.366,239.963,1127.366,244.221,1127.366,248.597z"/>
<path d="M1454.062,151.023c-4.014,2.763-7.791,5.645-11.849,8.058c-2.658,1.582-3.921,2.861-2.456,6.199
	c1.206,2.75,1.323,5.977,1.975,9.242c-3.529,1.784-7.153,3.617-10.962,5.542c-2.446-2.748-4.667-5.619-7.311-8.026
	c-1.099-1-3.224-1.634-4.667-1.35c-3.979,0.784-7.944,1.897-11.71,3.399c-1.354,0.54-2.719,2.437-3.028,3.932
	c-0.72,3.469-0.799,7.071-1.134,10.568c-4.417,0.548-8.288,1.027-12.192,1.512c-1.771-4.358-3.41-8.39-5.033-12.387
	c-5.932,0-11.817,0-18.209,0c-1.605,3.724-3.337,7.74-5.302,12.299c-3.188-0.354-7.192,0.103-10.12-1.459
	c-1.837-0.979-3.062-5.099-2.798-7.625c0.61-5.854-2.435-7.197-7.164-8.062c-3.638-0.665-7.116-2.194-10.863-3.403
	c-2.796,3.4-5.788,7.041-8.808,10.713c-3.733-1.891-7.081-3.585-10.82-5.479c0.47-2.427,0.578-5.079,1.517-7.395
	c1.873-4.626,0.174-7.184-3.896-9.39c-3.562-1.931-6.745-4.564-10.266-7.004c-1.703,1.203-3.402,2.454-5.153,3.629
	c-6.462,4.338-6.296,4.142-12.145-1.269c-2.819-2.608-2.866-4.7-0.888-7.616c1.637-2.412,2.933-5.056,4.27-7.404
	c-3.063-4.02-6.071-7.7-8.774-11.589c-2.203-3.167-4.771-2.615-7.763-1.574c-8.041,2.8-10.327,1.765-12.857-6.198
	c-0.389-1.22,0.63-3.373,1.657-4.479c6.938-7.469,6.977-7.406,2.978-16.862c-1.008-2.383-1.839-4.841-2.873-7.587
	c-2.37,0-4.89-0.27-7.327,0.058c-4.584,0.617-7.227-0.732-7.429-5.752c-0.084-2.067-0.763-4.11-1.202-6.326
	c2.164-1.086,4.205-2.093,6.229-3.132c1.896-0.973,3.775-1.979,5.791-3.037c-0.531-5.984-1.067-12.023-1.614-18.172
	c-4.135-1.317-8.274-2.636-12.814-4.083c0.428-3.863,0.854-7.729,1.349-12.208c4.141-0.834,8.556-1.724,13.25-2.669
	c0.802-4.076,1.047-8.617,2.656-12.607c1.643-4.065-0.09-5.989-2.808-8.116c-6.628-5.188-6.606-5.211-3.89-12.917
	c0.316-0.898,0.587-1.814,0.926-2.871c2.107,0,4.13-0.247,6.07,0.043c7.823,1.17,7.788,1.217,11.578-5.529
	c1.752-3.119,3.631-6.167,5.406-9.169c-2.738-3.564-5.538-7.206-8.352-10.866c2.507-3.131,4.96-6.194,7.476-9.336
	c1.164,0.299,2.712,0.245,3.576,0.987c7.725,6.643,12.993,2.659,17.934-3.799c1.263-1.649,3.1-2.86,4.696-4.294
	c-1.626-4.135-3.274-8.329-4.887-12.427c9.938-7.594,9.938-7.594,20.168,1.883c3.59-1.825,7.074-3.906,10.791-5.422
	c6.271-2.558,7.478-4.188,5.809-10.522c-0.72-2.728-1.823-5.564,1.821-6.286c3.895-0.77,8.401-5.614,11.881,0.814
	c0.231,0.429,0.396,0.894,0.603,1.338c2.142,4.635,4.718,7.983,10.78,5.647c2.663-1.026,5.899-0.479,8.712-1.249
	c1.342-0.367,2.864-1.952,3.313-3.312c1.069-3.238,1.547-6.671,2.317-10.276c3.98,0,7.928,0,12.371,0
	c1.165,4.278,2.392,8.777,3.541,13.003c5.301,0.89,10.429,1.866,15.597,2.523c1.06,0.135,2.438-0.72,3.36-1.49
	c0.832-0.697,1.271-1.884,1.834-2.884c4.069-7.24,7.81-8.391,14.407-3.387c1.475,1.118,1.854,5.212,1.121,7.395
	c-1.61,4.799,0.151,6.934,4.337,8.544c4.067,1.566,7.979,3.541,12.579,5.617c1.636-1.77,3.738-3.909,5.683-6.183
	c2.369-2.77,4.616-3.355,7.512-0.56c1.73,1.673,3.98,2.812,6.345,4.426c-0.64,1.906-1.286,3.848-1.939,5.787
	c-2.454,7.274-1.743,9.273,4.521,13.832c2.219,1.614,4.21,3.539,6.474,5.466c3.772-1.654,8.055-3.531,12.202-5.35
	c0.505,0.378,0.845,0.525,1.022,0.783c2.084,3.015,5.757,6.051,5.748,9.073c-0.009,2.877-4.166,5.578-5.89,8.693
	c-0.718,1.299-0.25,3.63,0.387,5.208c0.839,2.084,2.427,3.858,3.594,5.824c1.172,1.973,2.223,4.018,3.581,6.493
	c4.274-0.4,8.826-0.827,13.406-1.256c0.379,0.58,0.713,0.921,0.852,1.329c1.125,3.303,3.688,7.043,2.891,9.806
	c-0.766,2.646-5.187,4.113-7.686,6.437c-1.032,0.96-1.922,2.912-1.708,4.224c0.806,4.969,2.09,9.859,3.245,15.005
	c4.132,0.797,8.567,1.653,13.03,2.514c0.533,4.216,1.023,8.089,1.449,11.448c-4.062,3.952-11.525,1.132-13.009,7.636
	c-1.049,4.601-2.376,10.209-0.653,14.059c1.619,3.617,7.076,5.518,11.273,8.476c-0.096-0.332,0.149,0.038,0.061,0.28
	c-1.355,3.606-1.793,8.709-4.41,10.379c-2.834,1.808-7.715,0.41-11.877,0.41c-1.024,3.114-1.889,6.058-2.969,8.918
	c-1.032,2.736-2.295,5.387-3.842,8.97c2.257,2.086,4.987,4.262,7.237,6.854c0.952,1.098,1.646,3.355,1.175,4.604
	c-3.073,8.161-4.216,8.715-12.556,5.805c-3.855-1.346-6.164-0.838-8.355,2.961c-2.024,3.511-5.202,6.358-8.219,9.905
	c1.232,2.234,2.396,4.913,4.066,7.229c2.562,3.554,1.381,5.778-1.305,8.838c-3.619,4.125-6.613,4.545-10.646,1.024
	C1458.244,153.43,1456.023,152.306,1454.062,151.023z M1446.641,134.127c-15.674-15.687-30.851-30.859-46.003-46.055
	c-2.76-2.768-5.594-4.992-9.889-3.461c-5.097,1.817-6.838,5.62-6.829,10.692c0.031,20.149,0.01,40.299,0.021,60.448
	c0,1.297,0.136,2.594,0.238,4.433C1407.821,158.217,1428.215,149.513,1446.641,134.127z M1369.048,160.278
	c0-23.237,0.097-45.693-0.162-68.145c-0.022-2.046-1.875-4.662-3.646-5.98c-4.512-3.358-8.317-2.599-12.969,2.031
	c-14.398,14.337-28.752,28.72-43.104,43.104c-0.888,0.889-1.613,1.938-2.457,2.963
	C1324.716,149.634,1345.186,158.015,1369.048,160.278z M1457.12-16.632c-16.045,16.03-31.601,31.495-47.01,47.104
	c-1.237,1.254-1.941,3.457-2.093,5.285c-0.537,6.565,3.832,10.286,11.949,10.307c17.797,0.046,35.594,0.015,53.391,0.015
	c3.113,0,6.229,0,9.988,0C1481.11,22.174,1472.528,1.742,1457.12-16.632z M1270.335,45.822c1.106,0.084,2.236,0.245,3.366,0.246
	c20.127,0.015,40.254-0.005,60.382,0.023c4.854,0.007,8.699-1.627,10.631-6.342c1.897-4.638-0.368-8.002-3.539-11.156
	c-13.915-13.843-27.771-27.746-41.66-41.615c-1.13-1.128-2.353-2.165-3.526-3.241C1278.116,3.38,1270.179,30.295,1270.335,45.822z
	 M1483.303,60.961c-23.187,0-45.449-0.176-67.704,0.245c-2.516,0.047-6.237,3.014-7.098,5.441c-0.896,2.533-0.034,7.044,1.832,8.983
	c15.438,16.031,31.286,31.665,47.198,47.606C1472.422,105.047,1481.251,84.827,1483.303,60.961z M1295.511,123.062
	c15.646-15.641,30.988-31.107,46.511-46.394c3.178-3.129,4.215-6.392,2.66-10.416c-1.571-4.071-4.765-5.372-9.031-5.347
	c-19.797,0.116-39.593,0.051-59.389,0.051c-1.96,0-3.921,0-6.377,0C1271.771,84.637,1280.419,104.9,1295.511,123.062z
	 M1446.134-27.569c-18.198-14.977-38.467-23.677-62.178-25.572c0,22.543-0.098,44.504,0.088,66.463
	c0.033,4.009,2.444,7.726,6.457,8.284c2.812,0.391,6.806-0.682,8.806-2.617C1414.983,3.808,1430.307-11.74,1446.134-27.569z
	 M1306.773-27.533c15.603,15.572,30.812,30.695,45.938,45.9c3.021,3.039,6.192,4.958,10.496,3.019
	c4.204-1.895,5.938-5.148,5.905-9.846c-0.14-19.956-0.055-39.912-0.068-59.869c-0.002-1.455-0.154-2.91-0.264-4.837
	C1345.304-51.178,1325.057-42.457,1306.773-27.533z M1392.048,53.304c-0.209-7.508-8.474-15.546-15.729-15.299
	c-7.354,0.251-15.604,8.697-15.339,15.708c0.278,7.376,8.728,15.603,15.728,15.315C1384.079,68.726,1392.244,60.356,1392.048,53.304
	z"/>
<path d="M205.253-409.934c8.76-14.476,17.294-28.579,26.153-43.213c14.109,4.099,27.912,8.109,41.376,12.018
	c6.947,18.595-9.252,42.041,9.114,55.758c15.308,11.429,35.095,16.872,57.691,27.144c3.146-4.422,7.11-10.829,11.889-16.553
	c12.129-14.517,22.93-18.806,41.812-5.476c17.045,12.032,18.058,21.333,9.172,36.925c-8.036,14.107-7.998,24.062,5.76,38.514
	c22.242,23.373,41.663,38.511,72.19,16.157c2.361-1.729,5.541-2.344,9.99-4.146c7.623,9.149,16.21,18.062,22.913,28.222
	c2.426,3.677,2.593,12.867-0.057,15.232c-23.218,20.728-25.153,39.601-5.537,66.278c19.68,26.757,16.787,30.129,53.639,20.447
	c10.771-2.83,13.32,0.953,16.219,7.966c13.872,33.574,13.755,33.571-16.671,53.977c-4.5,3.017-8.594,6.641-12.653,9.809
	c5.389,22.931,10.646,45.333,15.806,67.315c12.864,1.791,24.369,3.87,35.962,4.866c11.317,0.973,16.56,5.739,15.628,17.666
	c-0.823,10.515-0.174,21.141-0.174,31.949c-16.26,5.156-31.812,10.083-46.824,14.845c-1.904,20.104-4.377,39.706-5.168,59.376
	c-0.188,4.555,4.288,11.108,8.486,13.672c10.981,6.688,22.992,11.674,36.974,18.504c-3.076,14.581-6.284,29.816-9.393,44.567
	c-2.361,0.677-3.523,1.234-4.717,1.321c-15.905,1.189-38.057-3.694-46.286,4.846c-12.95,13.442-16.816,35.807-23.742,54.683
	c-0.932,2.543,1.875,7.594,4.362,10.063c10.178,10.096,20.9,19.643,31.556,29.516c-6.867,12.1-11.625,22.911-18.724,31.864
	c-3.076,3.881-10.887,4.427-16.729,5.525c-2.76,0.521-6.006-1.041-8.933-1.975c-29.654-9.451-26.115-5.707-47.947,14.778
	c-29.473,27.662-17.524,49.123,1.976,72.803c-11.783,11.466-22.488,21.878-33.967,33.039c-2.15-1.02-4.904-2.077-7.412-3.561
	c-12.524-7.406-27.309-23.291-36.967-20.607c-18.437,5.115-34.277,20.345-50.353,32.49c-3.167,2.394-3.404,9.832-3.387,14.939
	c0.017,4.735,2.628,9.403,3.301,14.213c1.169,8.33,5.508,20.834,1.77,24.297c-8.605,7.963-20.913,12.678-32.479,16.305
	c-4.131,1.291-11.719-3.127-15.486-7.076c-8.408-8.817-15.404-18.989-23.453-29.219c-20.968,6.75-42.284,13.611-65.37,21.047
	c-1.584,14.822-3.281,30.666-5.244,49.031c-13.245,2.5-27.932,5.271-44.76,8.447c-5.45-12.285-10.26-25.377-17.047-37.349
	c-2.883-5.08-9.896-7.827-15.085-11.563c-0.41-0.299-1.23,0.035-1.846-0.055c-38.806-5.601-70.063,0.723-72.521,49.137
	c-18.05-3.068-32.9-5.586-47.391-8.051c-1.904-17.767-3.666-34.185-5.314-49.578c-22.594-7.312-43.423-14.045-64.474-20.853
	c-4.644,5.133-10.11,10.064-14.247,15.933c-21.449,30.448-21.275,22.258-45.794,11.461c-11.874-5.228-17.768-10.354-11.338-24.64
	c4.336-9.637,4.169-21.305,6.138-32.789c-15.96-11.235-32.124-23.312-49.137-34.028c-3.673-2.31-11.32-1.377-15.592,0.93
	c-11.78,6.353-22.746,14.228-33.229,20.979c-11.156-11.162-21.618-21.634-32.945-32.968c0.941-1.903,2.78-5.635,4.629-9.358
	c18.105-36.396,16.523-35.146-9.698-68.391c-13.093-16.603-25.775-19.054-41.709-10.927c-18.645,9.51-28.312,3.646-34.708-14.509
	c-2.176-6.171-6.844-11.464-11.078-18.287c12.796-11.646,25.655-23.337,37.921-34.5c-5.382-12.946-11.276-22.617-13.386-33.059
	c-5.704-28.195-21.841-38.534-49.509-32.865c-4.148,0.85-8.625,0.117-13.934,0.117c-0.697-2.792-1.295-4.969-1.784-7.169
	c-8.487-38.099-8.347-37.841,26.104-56.468c4.86-2.625,10.866-9.261,10.749-13.904c-0.48-19.675-3.073-39.298-4.998-60.032
	c-14.599-4.652-30.138-9.595-45.671-14.525c-0.291-0.533-0.824-1.089-0.824-1.643c0.316-55.076-10.869-43.506,50.393-52.919
	c5.367-20.516,11.25-41.499,15.943-62.742c0.627-2.83-4.157-7.74-7.467-10.403c-10.934-8.79-22.345-16.989-33.73-25.532
	c6.196-15.308,11.842-29.256,17.44-43.093c14.174,2.664,26.651,6.132,39.278,6.834c5.107,0.281,12.009-4.306,15.524-8.725
	c6.026-7.576,10.052-16.755,14.895-25.271c15.475-27.217,16.102-27.815-5.306-50.664c-9.366-9.999-13.74-17.053-1.063-27.044
	c4.166-3.284,6.691-8.692,9.844-13.216c7.011-10.062,14.745-9.92,25.354-4.403c30.791,16.022,30.987,15.533,54.911-8.265
	c7.834-7.791,15.94-15.305,25.096-24.068c-3.806-10.764-6.922-23.364-12.633-34.655c-5.314-10.503-1.348-15.185,6.776-20.833
	c28.125-19.541,27.967-19.752,53.057,5.095c3.524,3.489,7.16,6.87,10.71,10.266c18.293-8.208,36.39-15.653,53.713-24.591
	c4.043-2.089,7.351-9.109,7.734-14.109c1.054-13.623,0.363-27.384,0.363-42.039c14.341-4.171,28.154-8.188,42.708-12.421
	c8.774,14.353,17.667,28.897,26.822,43.875c11.109-2.232,22.312-4.919,33.653-6.68c34.348-5.329,35.45-4.963,42.229-37.726
	c2.505-12.129,6.677-15.141,17.965-15.185c31.178-0.123,31.863-0.688,38.684,30.492c3.659,16.731,12.762,22.239,29.016,22.579
	C175.289-415.433,189.756-412.079,205.253-409.934z M-205.488-211.799c-141.925,173.566-105.2,394.553-0.762,507.332
	c30.428-30.499,60.384-61.454,91.389-91.322c27.75-26.731,46.325-58.533,57.486-95.057c20.537-67.216,11.941-132.489-28.219-188.11
	C-120.214-126.911-164.933-167.579-205.488-211.799z M-150.369,353.262c131.098,112.476,347.039,132.931,506.085-0.715
	c-24.799-24.731-49.787-49.213-74.267-74.185c-27.454-28.001-57.352-52.734-94.125-67.248
	c-75.29-29.718-148.884-23.824-213.117,24.847C-70.664,269.965-108.496,313.26-150.369,353.262z M-151.327-265.919
	c29.341,29.253,58.016,56.983,85.705,85.665c37.919,39.278,82.116,64.468,137.212,72.484c60.208,8.763,114.896-4.295,161.086-41.01
	c40.283-32.016,75.021-71.021,112.113-107.03c3.395-3.293,6.123-7.271,9.158-10.927C210.375-384.803-0.469-388.195-151.327-265.919z
	 M412.934-208.436c-33.644,33.709-66.246,66.287-98.751,98.965c-63.507,63.834-81.232,165.935-41.188,249.257
	c31.38,65.301,92.637,103.636,137.534,157.102C508.43,187.348,554.863-27.352,412.934-208.436z M101.692-19.049
	C70.351-19.91,39.659,9.428,38.252,44.935c-1.248,31.412,32.704,64.25,63.976,63.899c31.808-0.354,65.139-33.105,63.434-64.436
	C163.67,7.787,132.167-20.3,101.692-19.049z"/>
</svg>
