<?xml version="1.0" encoding="utf-8"?>
<!-- Generator: Adobe Illustrator 16.0.0, SVG Export Plug-In . SVG Version: 6.00 Build 0)  -->
<!DOCTYPE svg PUBLIC "-//W3C//DTD SVG 1.1//EN" "http://www.w3.org/Graphics/SVG/1.1/DTD/svg11.dtd">
<svg version="1.1" id="Layer_1" xmlns="http://www.w3.org/2000/svg" xmlns:xlink="http://www.w3.org/1999/xlink" x="0px" y="0px"
	 width="808.996px" height="227.904px" viewBox="0 0 808.996 227.904" enable-background="new 0 0 808.996 227.904"
	 xml:space="preserve">
<polygon fill="#E34D2F" stroke="#000000" stroke-width="4" stroke-miterlimit="10" points="-2.004,115.138 82.207,115.138 
	149.228,193.861 224.76,68.33 294.972,68.33 342.845,27.904 388.667,68.33 464.388,68.33 561.993,148.117 649.246,148.125 
	685.397,85.351 763.675,85.181 810.93,36.415 810.93,-23.5 -2.004,-23.5 "/>
<path fill="#FFFFFF" stroke="#000000" stroke-miterlimit="10" d="M1022.996,227.904"/>
<polygon fill="none" stroke="#000000" stroke-width="4" stroke-miterlimit="10" points="649.246,148.125 649.246,148.125 
	739.996,216.202 792.845,216.202 810.93,216.202 810.93,36.415 763.675,85.181 685.397,85.351 "/>
<circle stroke="#000000" stroke-width="4" stroke-miterlimit="10" cx="148.165" cy="193.861" r="20.745"/>
<circle stroke="#000000" stroke-width="4" stroke-miterlimit="10" cx="649.246" cy="148.721" r="34.309"/>
<circle stroke="#000000" stroke-width="4" stroke-miterlimit="10" cx="224.76" cy="68.33" r="13.298"/>
<circle stroke="#000000" stroke-width="4" stroke-miterlimit="10" cx="763.675" cy="85.181" r="9.574"/>
<circle stroke="#000000" stroke-width="4" stroke-miterlimit="10" cx="684.6" cy="85.18" r="13.563"/>
<circle stroke="#000000" stroke-width="4" stroke-miterlimit="10" cx="464.388" cy="65.67" r="10.638"/>
<circle stroke="#000000" stroke-width="4" stroke-miterlimit="10" cx="740.512" cy="216.201" r="7.979"/>
</svg>
