<?xml version="1.0" encoding="utf-8"?>
<!-- Generator: Adobe Illustrator 16.0.0, SVG Export Plug-In . SVG Version: 6.00 Build 0)  -->
<!DOCTYPE svg PUBLIC "-//W3C//DTD SVG 1.1//EN" "http://www.w3.org/Graphics/SVG/1.1/DTD/svg11.dtd">
<svg version="1.1" id="Layer_1" xmlns="http://www.w3.org/2000/svg" xmlns:xlink="http://www.w3.org/1999/xlink" x="0px" y="0px"
	 width="1027.523px" height="513.83px" viewBox="0 0 1027.523 513.83" enable-background="new 0 0 1027.523 513.83"
	 xml:space="preserve">
<g>
	<path fill="#E34D2F" d="M137.938,112.375c1.527-1.481,2.755-3.272,4.121-4.917c-64.607-53.13-159.487-54.656-227.373,0.368
		c13.203,13.164,26.107,25.643,38.567,38.549c17.063,17.675,36.952,29.011,61.745,32.618c27.094,3.943,51.703-1.933,72.488-18.455
		C105.615,146.132,121.247,128.58,137.938,112.375z"/>
	<path fill="#E34D2F" d="M28.544,218.918c-14.104-0.388-27.915,12.814-28.548,28.792c-0.562,14.135,14.717,28.913,28.789,28.754
		c14.314-0.159,29.312-14.897,28.545-28.996C56.434,230.995,42.258,218.355,28.544,218.918z"/>
	<path fill="#E34D2F" d="M-110.029,360.48c13.693-13.725,27.172-27.654,41.125-41.095c12.488-12.029,20.846-26.34,25.869-42.775
		c9.242-30.247,5.373-59.62-12.699-84.649c-15.579-21.58-35.703-39.88-53.952-59.779
		C-173.553,210.286-157.027,309.729-110.029,360.48z"/>
	<path fill="#E34D2F" d="M142.855,386.136c-11.16-11.128-22.404-22.146-33.42-33.383c-12.354-12.6-25.809-23.729-42.356-30.261
		c-33.88-13.373-66.998-10.721-95.902,11.181c-20.192,15.302-37.216,34.784-56.06,52.785
		C-25.889,437.072,71.285,446.277,142.855,386.136z"/>
	<path fill="#E34D2F" d="M168.603,133.694c-15.139,15.169-29.811,29.829-44.438,44.534c-28.579,28.726-36.555,74.671-18.534,112.166
		c14.12,29.386,41.687,46.636,61.89,70.696C211.576,311.796,232.471,215.182,168.603,133.694z"/>
	<path fill="#010101" d="M252.792,219.078c-5.217-0.448-10.394-1.384-16.184-2.189c-2.321-9.892-4.687-19.973-7.112-30.292
		c1.827-1.426,3.668-3.056,5.694-4.414c13.691-9.183,13.744-9.181,7.502-24.29c-1.305-3.156-2.452-4.858-7.298-3.584
		c-16.584,4.357-15.282,2.839-24.138-9.201c-8.827-12.005-7.956-20.498,2.492-29.825c1.193-1.064,1.118-5.2,0.026-6.854
		c-3.016-4.572-6.881-8.583-10.311-12.7c-2.002,0.812-3.434,1.088-4.496,1.866c-13.737,10.059-22.476,3.247-32.485-7.271
		c-6.19-6.504-6.208-10.983-2.592-17.332c3.998-7.016,3.543-11.202-4.127-16.616c-8.498-5.999-13.358-4.069-18.816,2.464
		c-2.151,2.576-3.935,5.459-5.35,7.449c-10.168-4.622-19.072-7.071-25.961-12.215c-8.265-6.172-0.976-16.723-4.101-25.091
		c-6.06-1.759-12.271-3.563-18.62-5.408c-3.986,6.586-7.826,12.932-11.769,19.446c-6.974-0.966-13.484-2.475-20.026-2.614
		c-7.314-0.153-11.411-2.632-13.058-10.16c-3.069-14.031-3.377-13.777-17.407-13.722c-5.08,0.02-6.957,1.375-8.084,6.833
		c-3.05,14.744-3.546,14.579-19.003,16.977c-5.104,0.793-10.145,2.002-15.144,3.006c-4.12-6.74-8.122-13.285-12.07-19.744
		c-6.549,1.905-12.765,3.712-19.218,5.589c0,6.595,0.311,12.787-0.164,18.917c-0.172,2.25-1.661,5.409-3.48,6.349
		c-7.796,4.022-15.939,7.373-24.171,11.066c-1.597-1.528-3.234-3.05-4.819-4.62c-11.291-11.181-11.219-11.086-23.875-2.292
		c-3.656,2.541-5.44,4.648-3.05,9.375c2.57,5.081,3.973,10.751,5.686,15.595c-4.121,3.943-7.769,7.325-11.293,10.831
		c-10.766,10.709-10.854,10.929-24.71,3.719c-4.774-2.483-8.254-2.546-11.41,1.981c-1.418,2.036-2.555,4.469-4.43,5.947
		c-5.705,4.496-3.736,7.67,0.479,12.169c9.634,10.282,9.352,10.552,2.388,22.799c-2.179,3.833-3.991,7.963-6.703,11.372
		c-1.581,1.988-4.688,4.053-6.985,3.927c-5.682-0.316-11.297-1.877-17.675-3.076c-2.52,6.227-5.06,12.503-7.849,19.392
		c5.124,3.844,10.259,7.534,15.179,11.489c1.49,1.198,3.643,3.408,3.36,4.681c-2.112,9.56-4.759,19.001-7.175,28.234
		c-27.567,4.236-22.534-0.971-22.677,23.813c0,0.249,0.24,0.5,0.371,0.739c6.99,2.219,13.982,4.443,20.552,6.537
		c0.866,9.329,2.033,18.16,2.249,27.014c0.053,2.089-2.65,5.076-4.837,6.257c-15.503,8.382-15.565,8.267-11.747,25.41
		c0.22,0.99,0.489,1.97,0.803,3.227c2.389,0,4.404,0.33,6.27-0.053c12.451-2.551,19.712,2.102,22.279,14.789
		c0.949,4.699,3.602,9.051,6.023,14.877c-5.52,5.023-11.306,10.284-17.064,15.524c1.905,3.071,4.006,5.453,4.985,8.229
		c2.878,8.17,7.229,10.809,15.619,6.529c7.17-3.657,12.877-2.554,18.769,4.917c11.8,14.96,12.511,14.398,4.364,30.777
		c-0.832,1.675-1.66,3.354-2.083,4.21c5.097,5.1,9.805,9.813,14.825,14.836c4.717-3.039,9.652-6.582,14.953-9.441
		c1.922-1.038,5.363-1.458,7.016-0.418c7.656,4.823,14.93,10.257,22.112,15.312c-0.886,5.168-0.811,10.419-2.762,14.756
		c-2.894,6.429-0.241,8.734,5.102,11.088c11.033,4.858,10.955,8.544,20.607-5.158c1.861-2.641,4.321-4.859,6.411-7.17
		c9.473,3.064,18.846,6.094,29.013,9.385c0.742,6.926,1.535,14.314,2.391,22.31c6.521,1.109,13.204,2.242,21.326,3.623
		c1.106-21.786,15.172-24.632,32.635-22.111c0.277,0.04,0.646-0.11,0.831,0.024c2.334,1.682,5.491,2.917,6.788,5.203
		c3.055,5.388,5.219,11.279,7.671,16.808c7.573-1.429,14.183-2.677,20.143-3.802c0.883-8.264,1.646-15.394,2.359-22.063
		c10.389-3.347,19.981-6.434,29.417-9.472c3.622,4.604,6.771,9.182,10.554,13.148c1.695,1.777,5.109,3.766,6.969,3.185
		c5.204-1.632,10.743-3.754,14.615-7.337c1.682-1.559-0.271-7.186-0.796-10.934c-0.303-2.165-1.479-4.266-1.486-6.396
		c-0.007-2.298,0.1-5.645,1.525-6.723c7.234-5.465,14.362-12.319,22.658-14.621c4.346-1.208,10.999,5.94,16.636,9.273
		c1.128,0.668,2.368,1.144,3.334,1.602c5.167-5.022,9.984-9.708,15.286-14.868c-8.774-10.656-14.152-20.313-0.889-32.761
		c9.825-9.217,8.232-10.903,21.577-6.649c1.316,0.42,2.777,1.123,4.019,0.888c2.63-0.494,6.145-0.74,7.529-2.486
		c3.193-4.028,5.335-8.894,8.425-14.338c-4.794-4.443-9.619-8.739-14.199-13.282c-1.12-1.111-2.383-3.385-1.964-4.529
		c3.117-8.494,4.857-18.558,10.684-24.606c3.704-3.844,13.671-1.646,20.83-2.181c0.537-0.04,1.06-0.29,2.122-0.595
		c1.399-6.638,2.843-13.494,4.227-20.055c-6.292-3.074-11.696-5.317-16.639-8.327c-1.889-1.154-3.903-4.103-3.818-6.152
		c0.355-8.852,1.47-17.672,2.326-26.72c6.755-2.143,13.753-4.359,21.07-6.68c0-4.864-0.292-9.646,0.078-14.377
		C260.245,221.661,257.885,219.516,252.792,219.078z M14.999,178.994c-24.793-3.607-44.682-14.943-61.745-32.618
		c-12.46-12.906-25.364-25.385-38.567-38.549c67.886-55.024,162.766-53.498,227.373-0.368c-1.366,1.645-2.594,3.436-4.121,4.917
		c-16.691,16.204-32.323,33.756-50.451,48.164C66.702,177.061,42.092,182.937,14.999,178.994z M28.786,276.465
		c-14.072,0.158-29.351-14.619-28.789-28.754c0.633-15.978,14.444-29.18,28.548-28.792c13.714-0.563,27.89,12.076,28.786,28.551
		C58.098,261.568,43.1,276.306,28.786,276.465z M-55.734,191.96c18.072,25.029,21.94,54.402,12.699,84.649
		c-5.022,16.436-13.381,30.747-25.869,42.775c-13.953,13.441-27.432,27.371-41.125,41.095
		c-46.998-50.751-63.523-150.194,0.343-228.299C-91.437,152.08-71.313,170.38-55.734,191.96z M-28.824,333.672
		c28.905-21.901,62.022-24.554,95.902-11.181c16.548,6.531,30.002,17.661,42.356,30.261c11.016,11.238,22.261,22.255,33.42,33.383
		c-71.571,60.141-168.745,50.936-227.739,0.322C-66.04,368.457-49.016,348.974-28.824,333.672z M105.631,290.394
		c-18.021-37.495-10.044-83.44,18.534-112.166c14.627-14.705,29.298-29.365,44.438-44.534
		c63.868,81.488,42.973,178.103-1.082,227.396C147.318,337.03,119.751,319.78,105.631,290.394z"/>
</g>
<polygon fill="#E34D2F" points="983.477,43.215 946.113,62.995 919.74,90.065 905.454,125.633 899.96,173.984 918.641,219.039 
	952.707,248.709 983.477,261.896 1016.533,268.49 1061.498,261.896 1091.168,241.018 1119.739,197.18 1129.63,175.083 
	1129.63,140.634 1117.542,99.259 1104.355,78.38 1071.388,49.809 1032.927,43.215 "/>
<path fill="#010101" d="M962.749,280.574c-3.855-1.939-7.349-3.699-11.047-5.561c0.864-4.471,1.718-8.885,2.523-13.068
	c-4.315-3.055-8.345-6.127-12.632-8.781c-1.191-0.738-3.447-0.814-4.713-0.188c-3.037,1.516-5.877,5.225-8.605,5.053
	c-2.746-0.176-5.258-3.979-7.894-6.168c-0.479-0.398-1.071-0.67-1.874-1.16c1.426-2.459,2.664-4.938,4.221-7.199
	c2.449-3.557,1.614-6.143-0.937-9.568c-4.979-6.693-9.797-11.918-18.82-6.559c-0.663,0.396-2.812-0.586-3.46-1.502
	c-1.857-2.646-3.303-5.584-5.066-8.688c3.33-3.109,6.568-6.135,9.959-9.299c-1.855-4.875-3.662-10.076-5.885-15.094
	c-0.481-1.096-2.397-2.059-3.733-2.176c-3.457-0.305-6.959-0.104-10.58-0.104c-0.843-3.34-2.044-6.424-2.211-9.564
	c-0.07-1.326,1.764-3.441,3.209-4.035c5.661-2.316,9.311-4.443,7.812-12.34c-1.91-10.078-0.854-10.279-10.694-13.742
	c-0.759-0.266-1.543-0.453-2.291-0.674c-0.107-0.369-0.273-0.684-0.285-1.002c-0.328-10.297-0.351-10.395,9.714-12.844
	c3.438-0.836,5.757-2.135,5.23-6.135c-0.062-0.488-0.021-1.006,0.061-1.496c0.645-3.854,2.855-8.379,1.551-11.367
	c-1.421-3.246-6.11-5.061-9.783-7.801c1.379-3.396,2.836-6.987,4.359-10.741c2.379,0,4.993-0.707,6.934,0.137
	c5.08,2.209,7.705-0.117,9.834-4.188c0.151-0.291,0.252-0.605,0.394-0.902c1.646-3.518,4.878-7.215,4.505-10.502
	c-0.382-3.364-4.296-6.327-7.01-9.928c2.385-3.144,4.921-6.482,7.337-9.666c0.729,0.082,1.072,0.053,1.36,0.166
	c3.911,1.52,8.576,5.172,11.547,4.104c4.605-1.655,8.33-6.285,11.818-10.194c0.975-1.093,0.268-4.271-0.466-6.188
	c-2.91-7.625-1.812-10.943,5.888-13.428c1.612-0.521,4.857,1.198,6.088,2.834c4.232,5.625,8.232,3.428,13.498,1.467
	c6.951-2.592,9.655-6.405,8.076-13.477c-0.922-4.133,1.674-5.521,4.982-6.298c3.636-0.853,7.379-2.458,9.375,2.786
	c2.02,5.302,5.102,8.664,11.672,6.245c3.156-1.162,6.771-1.074,10.526-1.601c0.746-2.777,1.962-5.839,2.314-8.998
	c0.4-3.565,1.923-5.133,5.391-4.477c3.323,0.63,7.805-2.409,9.034,4.38c1.739,9.603,2.45,8.911,13.021,10.812
	c6.017,1.08,8.73-0.389,11.077-5.77c2.266-5.195,9.252-5.949,13.389-1.736c1.104,1.125,1.297,3.754,0.996,5.539
	c-1.079,6.409,1.237,10.354,7.583,11.912c0.459,0.11,0.83,0.547,1.272,0.768c7.762,3.869,8.108,4.183,14.09-2.436
	c4.123-4.562,6.692-1.015,9.627,0.737c2.879,1.724,4.676,4.028,2.576,7.812c-1.396,2.517-2.073,5.433-1.853,7.185
	c3.636,4.757,7.271,9.516,10.865,14.224c4.263-2.134,7.4-3.441,10.26-5.21c2.58-1.597,4.207-0.769,5.751,1.31
	c0.198,0.267,0.444,0.496,0.64,0.764c4.736,6.523,4.745,6.533-0.729,13.111c-2.104,2.528-3.333,4.779-0.428,7.873
	c1.955,2.084,3.431,4.893,4.316,7.635c1.281,3.955,3.918,4.449,7.329,4.051c9.104-1.062,9.103-1.057,12.035,7.531
	c0.259,0.752,0.588,1.48,0.993,2.492c-0.796,0.49-1.497,0.824-2.083,1.299c-3.03,2.459-8.27,4.73-8.55,7.49
	c-0.494,4.854,1.581,10.211,3.573,14.938c0.722,1.707,4.227,2.443,6.596,3.191c2.258,0.713,4.691,0.867,7.094,1.273
	c0,4.291,0,8.102,0,11.801c-0.288,0.303-0.455,0.641-0.705,0.719c-11.766,3.703-11.539,3.715-12.293,15.887
	c-0.244,3.951-0.551,6.527,3.979,8.516c10.413,4.564,7.012,2.107,5.688,12.668c-0.117,0.932-0.634,1.812-1.1,3.086
	c-1.523,0-3.168-0.002-4.812,0c-8.632,0.016-8.083,0.271-11.749,8.119c-3.229,6.918-2.646,11.965,3.798,16.188
	c0.933,0.609,1.575,1.652,2.304,2.439c-5.026,10.814-5.083,11.02-15.924,8.029c-2.63-0.725-3.691-0.48-5.087,1.66
	c-1.513,2.326-3.433,4.414-5.337,6.455c-3.404,3.652-4.514,7.203-0.673,11.385c1.382,1.506,1.987,3.727,3.188,6.096
	c-2.603,2.27-5.144,4.822-8.062,6.826c-0.821,0.562-3.105-0.057-4.116-0.879c-5.491-4.467-10.015-5.562-16.229,0.006
	c-6.928,6.207-7.938,5.551-5.313,14.289c1.159,3.857-0.307,5.174-3.195,6.297c-7.422,2.887-7.42,2.857-12.666-3.893
	c-2-2.574-4.154-3.801-7.65-2.17c-3.213,1.498-7.117,1.629-10.151,3.355c-1.801,1.023-2.902,3.852-3.599,6.09
	c-0.801,2.588,0.078,7.053-1.334,7.814c-3.108,1.682-7.197,1.547-11.203,2.203c-1.828-4.34-3.518-8.354-5.186-12.316
	c-2.908,0-5.812,0-8.719,0c-2.965,0-5.929,0-9.63,0c-1.146,2.562-2.37,5.906-4.131,8.938c-0.778,1.342-2.578,2.74-4.038,2.893
	c-2.363,0.24-4.918-0.264-7.228-0.98c-1.057-0.326-2.207-1.809-2.449-2.949c-0.405-1.914-0.018-3.98-0.146-5.975
	c-0.2-3.113-0.741-6.016-4.901-6.025c-0.76-0.002-1.503-0.605-2.279-0.854C970.423,269.707,970.421,269.709,962.749,280.574z
	 M1016.204,169.635c9.127,1.326,17.018-7.961,16.596-15.77c-0.498-9.227-6.944-16.295-16.014-16.354
	c-9.296-0.061-16.229,7.006-16.23,16.545C1000.552,162.488,1007.704,169.605,1016.204,169.635z M975.308,152.41
	c0.104-0.664,0.208-1.33,0.312-1.996c-21.558-3.172-43.109-6.344-64.811-9.535c-0.479,3.922-0.933,7.578-1.418,11.531
	C931.808,152.41,953.558,152.41,975.308,152.41z M1123.677,152.389c0-2.021,0.017-3.516-0.003-5.01
	c-0.07-5.34-1.419-6.549-6.479-5.844c-2.599,0.361-5.197,0.695-7.793,1.074c-13.432,1.963-26.864,3.896-40.284,5.936
	c-3.873,0.59-7.697,1.504-11.544,2.268c0.109,0.525,0.224,1.053,0.336,1.576C1079.648,152.389,1101.384,152.389,1123.677,152.389z
	 M1019.005,112.375c0.562,0.059,1.12,0.115,1.68,0.174c3.103-21.537,6.198-43.073,9.308-64.659
	c-4.305-0.562-7.625-0.992-10.984-1.429C1019.005,68.82,1019.005,90.597,1019.005,112.375z M1018.948,260.58
	c2.59,0,5.184,0.473,7.457-0.178c1.346-0.385,2.978-2.475,3.088-3.906c0.207-2.711-0.562-5.504-0.975-8.254
	c-1.938-12.926-3.877-25.852-5.854-38.771c-0.759-4.957-1.626-9.898-2.442-14.852c-0.426,0.059-0.851,0.115-1.272,0.174
	C1018.948,216.592,1018.948,238.393,1018.948,260.58z M988.488,50.668c6.365,21.651,12.453,42.343,18.537,63.031
	c0.617-0.145,1.236-0.293,1.855-0.439c-3.132-21.539-6.264-43.077-9.465-65.089C995.475,49.072,992.047,49.855,988.488,50.668z
	 M1024.679,113.221c0.566,0.166,1.134,0.332,1.699,0.5c6.131-20.743,12.263-41.487,18.634-63.04
	c-3.86-0.863-7.439-1.664-11.052-2.475C1030.765,70.593,1027.722,91.906,1024.679,113.221z M1003.486,47.902
	c3.138,21.713,6.234,43.162,9.337,64.608c0.467-0.047,0.934-0.096,1.397-0.143c0-21.887,0-43.773,0-66.008
	C1010.679,46.87,1007.459,47.332,1003.486,47.902z M1120.179,126.592c-9.767,0.971-60.78,16.916-62.257,19.502
	c9.501-1.252,18.896-2.408,28.264-3.748c10.352-1.48,20.645-3.443,31.028-4.553c3.994-0.43,4.904-2.014,4.416-5.316
	C1121.347,130.566,1120.714,128.707,1120.179,126.592z M1056.404,162.039c0.968,1.576,1.082,2.035,1.312,2.105
	c19.452,5.773,38.914,11.512,58.37,17.27c4.83,1.432,4.303-2.645,5.229-5.109c1-2.67,0.571-5.043-2.615-5.652
	c-3.205-0.613-6.512-0.682-9.747-1.152c-10.162-1.48-20.308-3.092-30.472-4.553C1071.402,163.926,1064.298,163.072,1056.404,162.039
	z M999.646,259.352c3.046-21.49,6.091-42.973,9.136-64.455c-0.604-0.096-1.207-0.191-1.812-0.287
	c-6.049,20.66-12.097,41.32-18.271,62.416C992.515,257.836,995.836,258.541,999.646,259.352z M1014.23,194.777
	c-0.438-0.029-0.875-0.059-1.312-0.088c-3.075,21.438-6.151,42.877-9.319,64.963c3.644,0.408,7.1,0.795,10.633,1.191
	C1014.23,238.322,1014.23,216.549,1014.23,194.777z M1048.898,51.695c-5.847,21.229-12.869,41.992-18.138,63.229
	c0.462,0.123,0.923,0.248,1.386,0.371c9.051-19.798,18.102-39.596,27.215-59.53C1055.808,54.383,1052.47,53.085,1048.898,51.695z
	 M975.954,146.096c0.133-0.461,0.265-0.922,0.396-1.383c-3.146-1.037-6.271-2.168-9.451-3.098
	c-16.229-4.734-32.47-9.455-48.733-14.062c-1.538-0.438-4.576-0.514-4.747-0.014c-0.926,2.697-1.277,5.621-1.526,8.492
	c-0.04,0.455,1.395,1.363,2.238,1.51c2.899,0.496,5.853,0.688,8.769,1.104c10.668,1.525,21.323,3.125,31.992,4.635
	C961.902,144.273,968.933,145.162,975.954,146.096z M974.097,55.779c9.203,20.104,18.123,39.586,27.042,59.071
	c0.562-0.23,1.12-0.455,1.684-0.684c-6.102-20.793-12.197-41.586-18.357-62.592C980.755,53.08,977.77,54.292,974.097,55.779z
	 M976.798,163.33c-0.125-0.385-0.25-0.77-0.374-1.15c-6.729,0.838-13.477,1.586-20.191,2.535
	c-13.281,1.875-26.558,3.816-39.812,5.857c-1.646,0.252-4.551,1.355-4.518,1.922c0.174,2.869,0.933,5.768,1.994,8.449
	c0.179,0.443,2.957,0.154,4.407-0.25c15.538-4.33,31.065-8.701,46.562-13.188C968.904,166.338,972.823,164.734,976.798,163.33z
	 M914.441,122.006c21.291,6.232,42.062,12.314,62.839,18.396c0.211-0.549,0.422-1.098,0.633-1.646
	c-19.678-9-39.357-18.002-59.36-27.15C917.145,115.166,915.847,118.451,914.441,122.006z M1118.874,122.01
	c-1.488-3.736-2.826-7.098-4.15-10.418c-20.291,9.35-39.879,18.373-59.467,27.396c0.213,0.516,0.426,1.025,0.638,1.541
	C1076.716,134.408,1097.536,128.285,1118.874,122.01z M1033.835,259.205c2.166-0.463,4.211-1.248,6.265-1.271
	c4.959-0.062,4.433-2.539,3.354-6.045c-3.101-10.111-5.859-20.326-8.874-30.465c-2.729-9.18-5.617-18.309-8.438-27.459
	c-0.506,0.088-1.012,0.178-1.518,0.266C1027.695,215.865,1030.761,237.504,1033.835,259.205z M996.077,117.969
	c0.47-0.271,0.938-0.539,1.407-0.811c-9.029-19.819-18.062-39.643-27.139-59.561c-3.496,1.799-6.527,3.358-9.916,5.104
	C972.456,81.345,984.267,99.658,996.077,117.969z M978.404,169.354c-0.181-0.529-0.355-1.062-0.533-1.592
	c-20.764,6.072-41.526,12.146-62.909,18.398c1.35,3.705,2.553,7.01,3.788,10.396C938.881,187.379,958.643,178.365,978.404,169.354z
	 M1118.729,186.211c-21.386-6.248-42.091-12.297-62.796-18.344c-0.198,0.52-0.397,1.035-0.6,1.553
	c19.678,9.006,39.354,18.014,59.353,27.164C1116.038,193.113,1117.252,190,1118.729,186.211z M1035.919,117.162
	c0.481,0.291,0.965,0.582,1.444,0.873c11.798-18.346,23.595-36.69,35.513-55.229c-3.688-2.023-6.66-3.652-9.695-5.316
	C1054.042,77.494,1044.98,97.328,1035.919,117.162z M1031.925,192.535c-0.53,0.156-1.062,0.312-1.59,0.469
	c6.112,20.896,12.226,41.799,18.417,62.963c3.839-1.549,6.923-2.793,10.296-4.154
	C1049.881,231.777,1040.902,212.156,1031.925,192.535z M979.82,134.992c0.271-0.486,0.541-0.977,0.812-1.463
	c-18.344-11.791-36.688-23.582-55.312-35.553c-1.809,3.721-3.329,6.863-4.811,9.909C940.575,117.055,960.198,126.023,979.82,134.992
	z M1107.932,98.066c-18.428,11.875-36.541,23.545-54.654,35.217c0.271,0.488,0.541,0.979,0.812,1.469
	c19.562-8.922,39.13-17.844,59.253-27.018C1111.448,104.353,1109.809,101.421,1107.932,98.066z M1098.951,85.697
	c-16.561,14.377-33.022,28.674-49.488,42.973c0.316,0.432,0.634,0.861,0.95,1.295c18.37-11.805,36.741-23.605,55.25-35.499
	C1103.314,91.396,1101.189,88.62,1098.951,85.697z M1085.333,71.724c-3.492-2.529-6.107-4.422-8.959-6.486
	c-11.79,18.373-23.408,36.48-35.027,54.588c0.449,0.348,0.899,0.691,1.353,1.037C1056.822,104.583,1070.948,88.301,1085.333,71.724z
	 M1002.894,193.18c-0.479-0.172-0.963-0.346-1.44-0.52c-8.92,19.555-17.844,39.107-26.919,59.01c2.663,1.113,4.967,1.896,7.093,3.02
	c2.373,1.252,3.336,0.842,4.111-1.875c4.688-16.4,9.592-32.742,14.38-49.115C1001.133,200.219,1001.972,196.688,1002.894,193.18z
	 M983.138,129.607c0.237-0.348,0.478-0.695,0.713-1.045c-16.346-14.164-32.688-28.331-48.956-42.426
	c-8.104,7.012-8.152,7.729-0.669,12.602c14.222,9.256,28.48,18.45,42.761,27.614C978.931,127.6,981.081,128.529,983.138,129.607z
	 M948.345,71.922c14.479,16.688,28.688,33.072,42.898,49.457c0.423-0.301,0.846-0.6,1.268-0.896
	c-11.791-18.375-23.582-36.75-35.605-55.488C953.826,67.486,951.181,69.627,948.345,71.922z M986.39,124.994
	c0.396-0.375,0.786-0.752,1.183-1.127c-14.105-16.322-28.213-32.646-41.972-48.566c-2.708,2.379-5.483,4.818-8.243,7.243
	C953.952,96.911,970.171,110.953,986.39,124.994z M1037.152,189.809c-0.48,0.24-0.963,0.479-1.444,0.719
	c8.985,19.732,17.97,39.465,27.039,59.383c2.143-0.963,3.757-1.705,5.384-2.418c3.327-1.459,4.633-2.965,1.78-6.582
	c-3.511-4.449-6.172-9.566-9.24-14.373C1052.845,214.287,1044.994,202.051,1037.152,189.809z M980.73,174.635
	c-0.259-0.465-0.518-0.93-0.773-1.393c-19.76,9.035-39.521,18.072-59.596,27.254c2.153,3.479,3.979,6.416,5.807,9.359
	C944.698,197.895,962.714,186.264,980.73,174.635z M1112.654,200.268c-19.989-9.123-39.594-18.064-59.19-27.01
	c-0.301,0.471-0.601,0.941-0.899,1.414c0.811,0.57,1.6,1.176,2.432,1.711c15.053,9.713,30.061,19.496,45.188,29.09
	C1108.07,210.477,1108.168,210.326,1112.654,200.268z M928.322,213.477c1.738,2.297,3.229,4.666,5.162,6.596
	c0.699,0.699,2.947,0.947,3.648,0.375c5.469-4.482,10.711-9.244,16.064-13.869c9.451-8.168,18.948-16.279,28.38-24.477
	c0.889-0.771,1.425-1.949,2.125-2.938c-0.302-0.238-0.602-0.479-0.899-0.717C964.75,190.057,946.695,201.666,928.322,213.477z
	 M970.495,250.264c9.146-20.021,18.098-39.613,27.049-59.209c-0.484-0.279-0.969-0.562-1.453-0.842
	c-11.621,18.062-23.242,36.127-35.103,54.559C964.252,246.656,967.017,248.254,970.495,250.264z M1088.111,75.033
	c-14.321,16.539-28.356,32.747-42.394,48.954c0.36,0.396,0.724,0.789,1.083,1.186c16.337-14.119,32.674-28.239,49.083-42.418
	C1093.297,80.179,1090.991,77.892,1088.111,75.033z M1046.261,182.584c-0.354,0.381-0.71,0.764-1.062,1.145
	c14.26,16.439,28.521,32.881,42.333,48.805c3.224-2.611,5.853-4.74,8.474-6.865C1079.086,211.014,1062.674,196.799,1046.261,182.584
	z M1105.068,213.385c-18.658-11.957-36.728-23.533-54.789-35.107c-0.308,0.438-0.609,0.871-0.914,1.309
	c16.379,14.182,32.758,28.363,49.405,42.781C1101.126,219.01,1102.976,216.369,1105.068,213.385z M948.539,236.154
	c3.031,2.195,5.868,4.25,8.849,6.41c11.953-18.652,23.711-37.002,35.47-55.352c-0.404-0.289-0.812-0.578-1.221-0.865
	C977.312,202.902,962.986,219.457,948.539,236.154z M910.894,167.412c21.765-3.193,43.084-6.324,64.406-9.457
	c-0.058-0.391-0.115-0.777-0.172-1.17c-21.746,0-43.492,0-65.688,0C909.943,160.467,910.402,163.824,910.894,167.412z
	 M1084.872,236.074c-14.326-16.531-28.5-32.893-42.674-49.25c-0.435,0.299-0.863,0.598-1.298,0.896
	c11.691,18.229,23.388,36.459,35.114,54.744C1078.82,240.441,1081.464,238.533,1084.872,236.074z M945.904,232.66
	c14.177-16.406,28.226-32.668,42.271-48.926c-0.381-0.348-0.762-0.689-1.143-1.037c-16.278,14.125-32.56,28.25-48.635,42.197
	C941.138,227.727,943.396,230.062,945.904,232.66z M1122.56,167.275c0.47-3.578,0.898-6.891,1.371-10.52
	c-22.427,0-44.104,0-65.787,0c-0.056,0.422-0.107,0.844-0.166,1.266C1079.311,161.078,1100.644,164.135,1122.56,167.275z"/>
<polygon fill="#E34D2F" points="983.477,311.548 946.113,331.328 919.74,358.398 905.454,393.966 899.96,442.317 918.641,487.372 
	952.707,517.042 983.477,530.229 1016.533,536.823 1061.498,530.229 1091.168,509.351 1119.739,465.513 1129.63,443.417 
	1129.63,408.967 1117.542,367.592 1104.355,346.713 1071.388,318.142 1032.927,311.548 "/>
<path fill="#010101" d="M1094.023,518.024c-4.015,2.764-7.791,5.645-11.85,8.059c-2.658,1.582-3.921,2.86-2.456,6.199
	c1.206,2.75,1.323,5.977,1.976,9.241c-3.529,1.784-7.153,3.617-10.963,5.542c-2.445-2.748-4.667-5.619-7.311-8.025
	c-1.1-1-3.225-1.635-4.667-1.351c-3.979,0.784-7.944,1.897-11.71,3.399c-1.354,0.539-2.719,2.437-3.028,3.932
	c-0.72,3.469-0.799,7.07-1.134,10.568c-4.417,0.547-8.288,1.026-12.192,1.512c-1.771-4.357-3.409-8.391-5.032-12.387
	c-5.933,0-11.817,0-18.209,0c-1.605,3.724-3.338,7.74-5.303,12.299c-3.188-0.354-7.191,0.103-10.119-1.459
	c-1.838-0.979-3.062-5.1-2.799-7.625c0.61-5.854-2.435-7.197-7.164-8.062c-3.638-0.664-7.115-2.193-10.862-3.402
	c-2.796,3.399-5.788,7.041-8.809,10.713c-3.732-1.891-7.081-3.586-10.819-5.479c0.47-2.427,0.578-5.079,1.517-7.396
	c1.873-4.625,0.174-7.184-3.896-9.389c-3.562-1.932-6.745-4.564-10.267-7.004c-1.703,1.202-3.401,2.453-5.152,3.629
	c-6.462,4.338-6.296,4.141-12.146-1.27c-2.818-2.607-2.866-4.7-0.888-7.616c1.637-2.411,2.933-5.056,4.27-7.404
	c-3.062-4.02-6.07-7.7-8.773-11.589c-2.203-3.167-4.771-2.615-7.763-1.574c-8.041,2.8-10.327,1.765-12.857-6.198
	c-0.389-1.22,0.63-3.373,1.657-4.479c6.938-7.469,6.977-7.406,2.978-16.862c-1.008-2.383-1.839-4.841-2.873-7.587
	c-2.37,0-4.89-0.27-7.327,0.058c-4.584,0.617-7.227-0.732-7.429-5.752c-0.084-2.067-0.763-4.11-1.202-6.326
	c2.164-1.086,4.205-2.093,6.229-3.132c1.896-0.973,3.774-1.979,5.791-3.037c-0.531-5.984-1.067-12.023-1.614-18.172
	c-4.135-1.317-8.274-2.636-12.814-4.083c0.429-3.863,0.854-7.729,1.35-12.208c4.141-0.834,8.556-1.724,13.25-2.669
	c0.802-4.076,1.047-8.617,2.655-12.607c1.644-4.065-0.09-5.989-2.808-8.116c-6.628-5.188-6.605-5.211-3.89-12.917
	c0.315-0.898,0.587-1.814,0.926-2.871c2.107,0,4.13-0.247,6.07,0.043c7.822,1.17,7.787,1.217,11.578-5.529
	c1.752-3.119,3.631-6.167,5.405-9.169c-2.737-3.564-5.538-7.206-8.352-10.866c2.507-3.131,4.96-6.194,7.476-9.336
	c1.164,0.299,2.712,0.245,3.576,0.987c7.725,6.643,12.993,2.659,17.934-3.799c1.264-1.649,3.101-2.86,4.696-4.294
	c-1.626-4.135-3.274-8.329-4.887-12.427c9.938-7.594,9.938-7.594,20.168,1.883c3.59-1.825,7.074-3.906,10.791-5.422
	c6.271-2.558,7.478-4.188,5.809-10.522c-0.72-2.728-1.823-5.564,1.821-6.286c3.895-0.77,8.401-5.614,11.881,0.814
	c0.231,0.429,0.396,0.894,0.604,1.338c2.142,4.635,4.718,7.983,10.779,5.647c2.663-1.026,5.899-0.479,8.713-1.249
	c1.342-0.367,2.863-1.952,3.312-3.312c1.069-3.238,1.547-6.671,2.317-10.276c3.979,0,7.928,0,12.37,0
	c1.166,4.278,2.393,8.777,3.541,13.003c5.302,0.89,10.43,1.866,15.598,2.523c1.06,0.135,2.438-0.72,3.359-1.49
	c0.832-0.697,1.271-1.884,1.834-2.884c4.069-7.24,7.811-8.391,14.407-3.387c1.476,1.118,1.854,5.212,1.121,7.395
	c-1.61,4.799,0.151,6.934,4.337,8.544c4.067,1.566,7.979,3.541,12.579,5.617c1.636-1.77,3.738-3.909,5.683-6.183
	c2.369-2.77,4.616-3.355,7.513-0.56c1.729,1.673,3.979,2.812,6.345,4.426c-0.64,1.906-1.286,3.848-1.939,5.787
	c-2.453,7.274-1.742,9.273,4.521,13.832c2.219,1.614,4.21,3.539,6.474,5.466c3.772-1.654,8.056-3.531,12.202-5.35
	c0.505,0.378,0.846,0.525,1.022,0.783c2.084,3.015,5.757,6.051,5.748,9.073c-0.009,2.877-4.166,5.578-5.891,8.693
	c-0.718,1.299-0.25,3.63,0.388,5.208c0.839,2.084,2.427,3.858,3.594,5.824c1.172,1.973,2.223,4.018,3.581,6.493
	c4.274-0.4,8.826-0.827,13.406-1.256c0.379,0.58,0.713,0.921,0.852,1.329c1.125,3.303,3.688,7.043,2.892,9.806
	c-0.767,2.646-5.188,4.113-7.687,6.437c-1.032,0.96-1.922,2.912-1.708,4.224c0.806,4.969,2.09,9.859,3.245,15.005
	c4.132,0.797,8.567,1.653,13.03,2.514c0.532,4.216,1.022,8.089,1.448,11.448c-4.062,3.952-11.524,1.132-13.009,7.636
	c-1.049,4.601-2.376,10.209-0.652,14.059c1.618,3.617,7.075,5.518,11.272,8.476c-0.096-0.332,0.149,0.038,0.062,0.28
	c-1.355,3.606-1.793,8.709-4.41,10.379c-2.834,1.808-7.715,0.41-11.877,0.41c-1.024,3.114-1.89,6.058-2.97,8.918
	c-1.031,2.736-2.295,5.387-3.842,8.97c2.257,2.086,4.987,4.262,7.237,6.854c0.952,1.098,1.646,3.355,1.175,4.604
	c-3.073,8.161-4.216,8.715-12.556,5.805c-3.855-1.346-6.164-0.838-8.355,2.961c-2.023,3.511-5.202,6.358-8.219,9.905
	c1.232,2.234,2.396,4.914,4.066,7.23c2.562,3.553,1.381,5.777-1.306,8.838c-3.619,4.125-6.612,4.545-10.646,1.023
	C1098.205,520.432,1095.984,519.308,1094.023,518.024z M1086.602,501.128c-15.674-15.687-30.851-30.859-46.003-46.055
	c-2.76-2.768-5.594-4.992-9.889-3.461c-5.097,1.817-6.838,5.62-6.829,10.692c0.031,20.149,0.01,40.299,0.021,60.449
	c0,1.297,0.136,2.594,0.237,4.433C1047.782,525.218,1068.176,516.515,1086.602,501.128z M1009.009,527.279
	c0-23.237,0.097-45.693-0.162-68.145c-0.021-2.046-1.875-4.662-3.646-5.98c-4.512-3.358-8.317-2.599-12.969,2.031
	c-14.398,14.337-28.752,28.72-43.104,43.104c-0.888,0.889-1.613,1.938-2.457,2.963
	C964.677,516.636,985.146,525.017,1009.009,527.279z M1097.081,350.37c-16.045,16.03-31.601,31.495-47.01,47.104
	c-1.237,1.254-1.941,3.457-2.094,5.285c-0.536,6.565,3.832,10.286,11.949,10.307c17.797,0.046,35.594,0.015,53.392,0.015
	c3.112,0,6.229,0,9.987,0C1121.071,389.175,1112.489,368.744,1097.081,350.37z M910.296,412.824
	c1.106,0.084,2.236,0.245,3.366,0.246c20.127,0.015,40.254-0.005,60.382,0.023c4.854,0.007,8.699-1.627,10.631-6.342
	c1.897-4.638-0.368-8.002-3.539-11.156c-13.915-13.843-27.771-27.746-41.66-41.615c-1.13-1.128-2.353-2.165-3.525-3.241
	C918.077,370.381,910.14,397.296,910.296,412.824z M1123.264,427.962c-23.187,0-45.449-0.176-67.704,0.245
	c-2.516,0.047-6.236,3.014-7.098,5.441c-0.896,2.533-0.034,7.044,1.832,8.983c15.438,16.031,31.286,31.665,47.198,47.606
	C1112.383,472.048,1121.212,451.829,1123.264,427.962z M935.472,490.063c15.646-15.641,30.988-31.107,46.511-46.394
	c3.179-3.129,4.216-6.392,2.66-10.416c-1.57-4.071-4.765-5.372-9.03-5.347c-19.798,0.116-39.594,0.051-59.39,0.051
	c-1.96,0-3.921,0-6.377,0C911.732,451.639,920.38,471.901,935.472,490.063z M1086.095,339.433
	c-18.198-14.977-38.467-23.677-62.178-25.572c0,22.543-0.098,44.504,0.088,66.463c0.033,4.009,2.444,7.726,6.457,8.284
	c2.812,0.391,6.806-0.682,8.806-2.617C1054.944,370.81,1070.268,355.261,1086.095,339.433z M946.734,339.468
	c15.603,15.572,30.812,30.695,45.938,45.9c3.021,3.039,6.192,4.958,10.496,3.019c4.204-1.895,5.938-5.148,5.905-9.846
	c-0.141-19.956-0.056-39.912-0.068-59.869c-0.002-1.455-0.154-2.91-0.264-4.837C985.265,315.824,965.018,324.544,946.734,339.468z
	 M1032.009,420.306c-0.209-7.508-8.474-15.546-15.729-15.299c-7.354,0.251-15.604,8.697-15.339,15.708
	c0.277,7.376,8.728,15.603,15.728,15.315C1024.04,435.728,1032.205,427.357,1032.009,420.306z"/>
</svg>
