<?xml version="1.0" encoding="utf-8"?>
<!-- Generator: Adobe Illustrator 16.0.0, SVG Export Plug-In . SVG Version: 6.00 Build 0)  -->
<!DOCTYPE svg PUBLIC "-//W3C//DTD SVG 1.1//EN" "http://www.w3.org/Graphics/SVG/1.1/DTD/svg11.dtd">
<svg version="1.1" id="Layer_1" xmlns="http://www.w3.org/2000/svg" xmlns:xlink="http://www.w3.org/1999/xlink" x="0px" y="0px"
	 width="1027.523px" height="513.83px" viewBox="0 0 1027.523 513.83" enable-background="new 0 0 1027.523 513.83"
	 xml:space="preserve">
<g>
	<path fill="#E34D2F" d="M756.559-300.804c3.395-3.293,6.123-7.271,9.158-10.927c-143.572-118.066-354.416-121.458-505.274,0.818
		c29.341,29.253,58.016,56.983,85.705,85.665c37.919,39.278,82.116,64.468,137.212,72.484c60.208,8.763,114.896-4.295,161.085-41.01
		C684.729-225.79,719.467-264.795,756.559-300.804z"/>
	<path fill="#E34D2F" d="M513.461-64.043c-31.34-0.861-62.032,28.477-63.439,63.984c-1.248,31.412,32.704,64.25,63.977,63.898
		c31.808-0.354,65.138-33.105,63.433-64.436C575.439-37.207,543.938-65.294,513.461-64.043z"/>
	<path fill="#E34D2F" d="M205.52,250.539c30.428-30.498,60.384-61.453,91.389-91.322c27.75-26.73,46.325-58.533,57.486-95.057
		c20.537-67.216,11.941-132.489-28.219-188.11c-34.62-47.955-79.339-88.623-119.894-132.843
		C64.357-83.227,101.082,137.759,205.52,250.539z"/>
	<path fill="#E34D2F" d="M767.486,307.552c-24.799-24.73-49.787-49.213-74.268-74.186c-27.453-28-57.352-52.732-94.125-67.246
		c-75.289-29.719-148.884-23.824-213.117,24.846c-44.871,34.004-82.703,77.299-124.576,117.301
		C392.499,420.744,608.439,441.198,767.486,307.552z"/>
	<path fill="#E34D2F" d="M824.703-253.43c-33.643,33.709-66.246,66.287-98.75,98.965C662.445-90.631,644.721,11.47,684.766,94.792
		c31.379,65.301,92.637,103.635,137.533,157.102C920.199,142.353,966.633-72.346,824.703-253.43z"/>
	<path fill="#010101" d="M1011.791-63.688c-11.594-0.996-23.098-3.075-35.963-4.866c-5.158-21.982-10.416-44.384-15.805-67.315
		c4.059-3.168,8.152-6.792,12.652-9.809c30.426-20.406,30.543-20.403,16.672-53.977c-2.9-7.013-5.449-10.796-16.219-7.966
		c-36.854,9.682-33.959,6.31-53.641-20.447c-19.615-26.677-17.68-45.55,5.537-66.278c2.65-2.365,2.484-11.555,0.059-15.232
		c-6.703-10.16-15.291-19.073-22.914-28.222c-4.449,1.802-7.629,2.417-9.99,4.146c-30.527,22.354-49.947,7.216-72.189-16.157
		c-13.758-14.452-13.797-24.407-5.76-38.514c8.885-15.592,7.873-24.893-9.172-36.925c-18.883-13.33-29.684-9.041-41.812,5.476
		c-4.779,5.724-8.744,12.131-11.889,16.553c-22.596-10.272-42.383-15.715-57.691-27.144c-18.367-13.717-2.168-37.163-9.113-55.758
		c-13.465-3.909-27.268-7.919-41.377-12.018c-8.859,14.634-17.393,28.737-26.152,43.213c-15.498-2.145-29.965-5.499-44.504-5.809
		c-16.254-0.34-25.357-5.848-29.016-22.579c-6.82-31.18-7.506-30.615-38.684-30.492c-11.288,0.044-15.46,3.056-17.965,15.185
		c-6.779,32.763-7.881,32.397-42.229,37.726c-11.341,1.761-22.544,4.448-33.653,6.68c-9.155-14.979-18.048-29.522-26.822-43.875
		c-14.554,4.233-28.367,8.25-42.708,12.421c0,14.655,0.691,28.416-0.363,42.039c-0.383,5-3.691,12.02-7.734,14.109
		c-17.323,8.938-35.42,16.383-53.713,24.591c-3.55-3.396-7.186-6.777-10.71-10.266c-25.09-24.847-24.932-24.636-53.057-5.095
		c-8.124,5.648-12.09,10.33-6.776,20.833c5.711,11.291,8.827,23.891,12.633,34.655c-9.156,8.763-17.262,16.277-25.096,24.068
		c-23.924,23.798-24.12,24.287-54.911,8.265c-10.609-5.517-18.343-5.659-25.354,4.403c-3.153,4.524-5.678,9.932-9.844,13.216
		c-12.677,9.991-8.303,17.045,1.063,27.044c21.408,22.849,20.781,23.447,5.306,50.664c-4.843,8.516-8.869,17.695-14.895,25.271
		c-3.515,4.419-10.417,9.006-15.524,8.725c-12.627-0.702-25.104-4.17-39.278-6.834c-5.598,13.837-11.244,27.785-17.44,43.093
		c11.385,8.543,22.796,16.742,33.73,25.532c3.31,2.663,8.094,7.573,7.467,10.403c-4.693,21.243-10.576,42.226-15.943,62.742
		C-10.258-58.8,0.927-70.37,0.611-15.294c0,0.554,0.533,1.11,0.824,1.643c15.533,4.93,31.072,9.873,45.671,14.525
		c1.925,20.732,4.518,40.355,4.998,60.031c0.117,4.643-5.889,11.279-10.749,13.904C6.904,93.437,6.764,93.179,15.251,131.277
		c0.489,2.201,1.087,4.377,1.784,7.17c5.309,0,9.786,0.732,13.934-0.117c27.668-5.668,43.805,4.67,49.509,32.865
		c2.11,10.441,8.004,20.113,13.386,33.059c-12.266,11.164-25.125,22.854-37.921,34.5c4.234,6.824,8.902,12.117,11.078,18.287
		c6.396,18.156,16.063,24.02,34.708,14.51c15.934-8.127,28.616-5.676,41.709,10.926c26.221,33.246,27.803,31.996,9.698,68.393
		c-1.849,3.723-3.688,7.455-4.629,9.357c11.327,11.334,21.789,21.807,32.945,32.969c10.483-6.752,21.449-14.627,33.229-20.98
		c4.272-2.307,11.919-3.24,15.592-0.93c17.013,10.717,33.177,22.793,49.137,34.027c-1.969,11.484-1.802,23.152-6.138,32.789
		c-6.43,14.287-0.536,19.412,11.338,24.64c24.519,10.797,24.345,18.986,45.794-11.461c4.137-5.869,9.603-10.799,14.247-15.933
		c21.051,6.808,41.88,13.541,64.474,20.853c1.648,15.393,3.41,31.811,5.314,49.578c14.491,2.465,29.341,4.982,47.391,8.051
		c2.458-48.414,33.714-54.738,72.521-49.137c0.615,0.09,1.436-0.244,1.846,0.055c5.188,3.736,12.201,6.482,15.084,11.562
		c6.787,11.973,11.598,25.064,17.047,37.35c16.828-3.176,31.516-5.947,44.76-8.447c1.963-18.365,3.66-34.209,5.244-49.031
		c23.086-7.436,44.402-14.297,65.371-21.046c8.049,10.23,15.045,20.402,23.453,29.218c3.766,3.949,11.354,8.367,15.486,7.076
		c11.564-3.627,23.873-8.342,32.479-16.305c3.738-3.463-0.602-15.967-1.77-24.296c-0.674-4.811-3.285-9.479-3.303-14.213
		c-0.016-5.107,0.221-12.545,3.389-14.939c16.076-12.145,31.916-27.375,50.352-32.49c9.658-2.684,24.443,13.201,36.969,20.607
		c2.508,1.484,5.262,2.541,7.41,3.561c11.48-11.16,22.186-21.572,33.969-33.039c-19.5-23.68-31.449-45.141-1.977-72.803
		c21.832-20.484,18.293-24.229,47.947-14.777c2.926,0.934,6.172,2.496,8.932,1.975c5.844-1.098,13.654-1.645,16.73-5.525
		c7.098-8.953,11.855-19.764,18.723-31.863c-10.654-9.873-21.377-19.42-31.555-29.516c-2.488-2.469-5.295-7.521-4.363-10.064
		c6.926-18.875,10.793-41.24,23.742-54.682c8.23-8.541,30.381-3.658,46.287-4.846c1.193-0.088,2.355-0.645,4.717-1.322
		c3.109-14.75,6.316-29.986,9.393-44.566c-13.982-6.83-25.992-11.816-36.975-18.504c-4.197-2.564-8.674-9.117-8.486-13.672
		c0.791-19.67,3.266-39.271,5.17-59.377c15.012-4.762,30.562-9.688,46.822-14.844c0-10.808-0.648-21.434,0.174-31.949
		C1028.352-57.949,1023.107-62.715,1011.791-63.688z M483.36-152.764c-55.096-8.016-99.293-33.206-137.212-72.484
		c-27.689-28.682-56.364-56.412-85.705-85.665c150.858-122.276,361.702-118.884,505.274-0.818
		c-3.035,3.656-5.764,7.634-9.158,10.927c-37.092,36.009-71.83,75.014-112.113,107.03
		C598.256-157.059,543.568-144.001,483.36-152.764z M513.999,63.839c-31.272,0.352-65.225-32.486-63.977-63.898
		c1.407-35.507,32.099-64.845,63.439-63.984c30.476-1.251,61.978,26.836,63.97,63.447C579.137,30.734,545.807,63.486,513.999,63.839
		z M326.176-123.95c40.16,55.621,48.756,120.894,28.219,188.11c-11.161,36.523-29.736,68.326-57.486,95.057
		c-31.005,29.869-60.961,60.824-91.389,91.322C101.082,137.759,64.357-83.227,206.282-256.793
		C246.837-212.573,291.556-171.905,326.176-123.95z M385.977,190.966c64.233-48.67,137.828-54.564,213.117-24.846
		c36.773,14.514,66.672,39.246,94.125,67.246c24.48,24.973,49.469,49.455,74.268,74.186
		c-159.047,133.646-374.987,113.191-506.085,0.715C303.274,268.265,341.106,224.97,385.977,190.966z M684.766,94.792
		c-40.045-83.322-22.32-185.424,41.188-249.258c32.504-32.678,65.107-65.256,98.75-98.965
		c141.93,181.084,95.496,395.783-2.404,505.324C777.402,198.427,716.145,160.093,684.766,94.792z"/>
</g>
</svg>
