<?xml version="1.0" encoding="utf-8"?>
<!-- Generator: Adobe Illustrator 16.0.0, SVG Export Plug-In . SVG Version: 6.00 Build 0)  -->
<!DOCTYPE svg PUBLIC "-//W3C//DTD SVG 1.1//EN" "http://www.w3.org/Graphics/SVG/1.1/DTD/svg11.dtd">
<svg version="1.1" id="Layer_1" xmlns="http://www.w3.org/2000/svg" xmlns:xlink="http://www.w3.org/1999/xlink" x="0px" y="0px"
	 width="808.996px" height="249.406px" viewBox="0 0 808.996 249.406" enable-background="new 0 0 808.996 249.406"
	 xml:space="preserve">
<polygon fill="#E34D2F" stroke="#000000" stroke-width="4" stroke-miterlimit="10" points="-2.004,136.64 82.207,136.64 
	149.228,215.364 224.76,89.832 294.972,89.832 342.845,49.406 388.667,89.833 464.388,89.833 561.993,169.619 649.246,169.627 
	685.397,106.853 763.675,106.683 810.93,57.917 810.93,-1.998 -2.004,-1.998 "/>
<path fill="#FFFFFF" stroke="#000000" stroke-miterlimit="10" d="M1022.996,249.406"/>
<polygon fill="none" stroke="#000000" stroke-width="4" stroke-miterlimit="10" points="649.246,169.627 649.246,169.627 
	739.996,237.704 792.845,237.704 810.93,237.704 810.93,57.917 763.675,106.683 685.397,106.853 "/>
<circle stroke="#000000" stroke-width="4" stroke-miterlimit="10" cx="148.165" cy="215.364" r="20.745"/>
<circle stroke="#000000" stroke-width="4" stroke-miterlimit="10" cx="649.246" cy="170.223" r="34.309"/>
<circle stroke="#000000" stroke-width="4" stroke-miterlimit="10" cx="224.76" cy="89.833" r="13.298"/>
<circle stroke="#000000" stroke-width="4" stroke-miterlimit="10" cx="763.675" cy="106.683" r="9.574"/>
<circle stroke="#000000" stroke-width="4" stroke-miterlimit="10" cx="684.6" cy="106.683" r="13.563"/>
<circle stroke="#000000" stroke-width="4" stroke-miterlimit="10" cx="464.388" cy="87.172" r="10.638"/>
<circle stroke="#000000" stroke-width="4" stroke-miterlimit="10" cx="740.512" cy="237.704" r="7.979"/>
</svg>
