<?xml version="1.0" encoding="utf-8"?>
<!-- Generator: Adobe Illustrator 16.0.0, SVG Export Plug-In . SVG Version: 6.00 Build 0)  -->
<!DOCTYPE svg PUBLIC "-//W3C//DTD SVG 1.1//EN" "http://www.w3.org/Graphics/SVG/1.1/DTD/svg11.dtd">
<svg version="1.1" id="Layer_1" xmlns="http://www.w3.org/2000/svg" xmlns:xlink="http://www.w3.org/1999/xlink" x="0px" y="0px"
	 width="205.777px" height="469.5px" viewBox="0 0 205.777 469.5" enable-background="new 0 0 205.777 469.5" xml:space="preserve">
<g>
	<path fill-rule="evenodd" clip-rule="evenodd" d="M56.555,469.5c-2.173-0.902-4.39-1.711-6.51-2.724
		c-7.015-3.352-10.865-9.222-10.543-16.732c0.539-12.586,1.616-25.183,3.188-37.684c2.585-20.548,5.038-41.156,8.877-61.487
		c3.442-18.229,8.333-36.215,13.253-54.124c2.833-10.312,6.198-20.637,10.763-30.273c5.067-10.697,5.731-21.906,6.119-33.136
		c0.78-22.589,0.823-45.206,1.017-67.812c0.017-1.97-0.725-4.179-1.754-5.891c-15.035-25.005-27.676-51.162-36.35-79.02
		c-5.182-16.643-9.272-33.655-13.199-50.651c-2.91-12.598,4.219-23.842,16.918-28.477C49.588,1.031,50.815,0.498,52.055,0
		c3,0,6,0,9,0c8.637,2.866,14.043,8.547,15.693,17.672c0.865,4.786,1.98,9.528,3.042,14.276
		c6.396,28.622,16.295,55.979,29.548,82.142c1.135,2.241,2.381,2.121,4.491,1.578c18.854-4.854,35.033-0.536,47.984,14.394
		c0.733,0.845,1.46,1.729,2.01,2.696c1.645,2.898,3.792,4.766,7.114,6.034c3.581,1.369,6.617,4.166,9.414,6.022
		c1.864-3.783,3.196-8.214,5.875-11.573c6.203-7.779,14.814-10.453,24.45-8.57c9.284,1.814,15.046,8.063,16.784,17.116
		c2.679,13.956,4.709,28.042,6.753,42.112c1.093,7.526,2.095,15.118,2.318,22.705c0.31,10.534-4.453,18.837-14.048,23.243
		c-9.693,4.452-18.47,1.375-26.198-5.45c-7.461-6.588-15.009-13.078-23.237-20.238c-0.221,2.071-0.411,3.327-0.48,4.589
		c-0.939,17.087-1.51,34.207-2.942,51.251c-0.671,7.982-3.007,15.822-4.562,23.731c-0.235,1.196-0.553,2.439-0.453,3.629
		c1.449,17.288,2.823,34.585,4.493,51.853c3.027,31.311,6.211,62.607,9.398,93.902c0.79,7.763,1.426,15.314-3.094,22.457
		c-5.241,8.282-17.515,14.005-26.836,11.924c-8.202-1.831-13.785-7.549-14.693-15.901c-3.374-31.025-6.676-62.061-9.779-93.114
		c-1.527-15.281-2.596-30.609-3.781-45.924c-0.166-2.142-1.068-3.039-3.113-3.414c-6.722-1.235-6.669-1.276-8.557,5.153
		c-7.574,25.792-13.125,52-16.224,78.714c-2.128,18.346-4.246,36.693-6.429,55.033c-1.323,11.126-7.943,17.601-18.404,20.619
		c-0.701,0.202-1.359,0.556-2.037,0.838C62.555,469.5,59.555,469.5,56.555,469.5z"/>
	<path fill-rule="evenodd" clip-rule="evenodd" d="M112.829,72.783c0.133-22.642,18.666-41.088,41.343-41.149
		c22.711-0.062,41.444,18.56,41.573,41.328c0.129,22.654-19.308,42.004-41.77,41.587C131.022,114.122,112.694,95.519,112.829,72.783
		z"/>
</g>
</svg>
